<svg width="411" height="348" viewBox="0 0 411 348" fill="none" xmlns="http://www.w3.org/2000/svg">
<rect width="411" height="348" rx="12" fill="#F2E9F6"/>
<g clip-path="url(#clip0_736_381)">
<path d="M140.532 146.261H142.054C147.335 146.376 152.53 148.505 156.262 152.274C154.884 153.684 153.477 155.036 152.128 156.446C150.033 154.547 147.507 153.08 144.752 152.562C140.676 151.699 136.284 152.475 132.868 154.806C129.137 157.251 126.611 161.394 126.066 165.825C125.463 170.198 126.697 174.801 129.539 178.196C132.266 181.505 136.428 183.576 140.733 183.72C144.752 183.95 148.942 182.713 151.87 179.893C154.166 177.908 155.228 174.887 155.573 171.953C150.808 171.953 146.043 171.982 141.279 171.953V166.026H161.342C162.375 172.384 160.883 179.548 156.061 184.094C152.846 187.316 148.397 189.215 143.862 189.589C139.47 190.021 134.935 189.186 131.031 187.057C126.353 184.554 122.621 180.325 120.784 175.348C119.062 170.773 119.033 165.595 120.641 160.991C122.105 156.791 124.918 153.08 128.534 150.49C132.007 147.93 136.227 146.52 140.532 146.261Z" fill="#B185DB"/>
<path d="M255.633 147.757H261.775V188.841C259.737 188.841 257.671 188.87 255.633 188.812C255.661 175.146 255.633 161.452 255.633 147.757Z" fill="#B185DB"/>
<path d="M175.005 161.998C178.794 161.279 182.898 162.085 186.027 164.358C188.869 166.371 190.849 169.536 191.452 172.989C192.227 176.988 191.251 181.361 188.668 184.525C185.884 188.064 181.32 189.963 176.871 189.675C172.795 189.445 168.834 187.402 166.423 184.065C163.696 180.383 163.036 175.319 164.528 171.003C166.021 166.371 170.24 162.833 175.005 161.998ZM175.866 167.465C174.316 167.868 172.881 168.759 171.848 170.025C169.063 173.363 169.236 178.8 172.307 181.907C174.058 183.691 176.698 184.525 179.138 184.036C181.406 183.634 183.386 182.109 184.477 180.095C186.371 176.671 185.826 171.953 182.927 169.277C181.061 167.551 178.335 166.832 175.866 167.465Z" fill="#B185DB"/>
<path d="M205.431 161.998C209.765 161.164 214.501 162.372 217.744 165.422C223.026 170.169 223.6 179.059 219.093 184.525C216.367 187.978 211.946 189.877 207.583 189.675C203.421 189.56 199.317 187.489 196.848 184.065C194.064 180.296 193.461 175.118 195.04 170.716C196.619 166.228 200.752 162.804 205.431 161.998ZM206.292 167.465C204.742 167.867 203.307 168.759 202.273 169.996C199.518 173.276 199.632 178.627 202.589 181.763C204.34 183.634 207.067 184.554 209.593 184.036C211.831 183.605 213.841 182.109 214.931 180.095C216.797 176.642 216.252 171.924 213.324 169.248C211.458 167.522 208.731 166.832 206.292 167.465Z" fill="#B185DB"/>
<path d="M231.235 163.667C234.536 161.596 238.927 161.02 242.487 162.804C243.606 163.293 244.525 164.127 245.414 164.962C245.443 164.185 245.414 163.379 245.443 162.574C247.366 162.603 249.289 162.574 251.241 162.603V187.978C251.212 191.804 250.236 195.861 247.481 198.652C244.467 201.73 239.846 202.68 235.684 202.047C231.235 201.385 227.36 198.134 225.638 194.02C227.36 193.185 229.168 192.524 230.948 191.747C231.952 194.106 233.99 196.12 236.545 196.58C239.1 197.041 242.056 196.408 243.721 194.279C245.5 192.092 245.5 189.1 245.414 186.424C244.094 187.719 242.573 188.87 240.736 189.301C236.746 190.423 232.354 189.042 229.283 186.338C226.183 183.634 224.346 179.462 224.518 175.319C224.604 170.63 227.245 166.113 231.235 163.667ZM237.176 167.35C235.426 167.637 233.789 168.616 232.67 169.968C229.972 173.19 229.972 178.34 232.699 181.505C234.249 183.375 236.746 184.41 239.157 184.152C241.425 183.921 243.52 182.483 244.639 180.498C246.534 177.132 246.218 172.557 243.663 169.623C242.085 167.81 239.559 166.918 237.176 167.35Z" fill="#B185DB"/>
<path d="M269.152 165.134C272.596 161.912 277.907 160.819 282.327 162.516C286.518 164.099 289.187 168.098 290.536 172.212C284.307 174.801 278.107 177.362 271.879 179.951C272.74 181.591 274.06 183.087 275.84 183.691C278.337 184.583 281.322 184.267 283.418 182.598C284.25 181.965 284.91 181.131 285.542 180.325C287.12 181.389 288.699 182.425 290.278 183.49C288.039 186.856 284.279 189.215 280.231 189.589C275.754 190.136 270.989 188.409 268.09 184.899C263.325 179.376 263.784 170.112 269.152 165.134ZM272.223 170.457C271.247 171.867 270.846 173.593 270.874 175.29C275.036 173.564 279.198 171.838 283.36 170.083C282.671 168.472 281.007 167.493 279.313 167.235C276.586 166.745 273.745 168.213 272.223 170.457Z" fill="#B185DB"/>
</g>
<defs>
<clipPath id="clip0_736_381">
<rect width="171.072" height="55.968" fill="white" transform="translate(119.464 146.256)"/>
</clipPath>
</defs>
</svg>
