<svg width="411" height="348" viewBox="0 0 411 348" fill="none" xmlns="http://www.w3.org/2000/svg">
<rect width="411" height="348" rx="12" fill="#F2E9F6"/>
<g clip-path="url(#clip0_736_380)">
<path d="M119.041 137.06C98.5841 137.06 82 153.823 82 174.5C82 195.179 98.5841 211.94 119.041 211.94C139.499 211.94 156.082 195.179 156.082 174.5C156.082 153.824 139.499 137.062 119.04 137.062L119.041 137.06ZM136.027 191.06C135.869 191.321 135.662 191.549 135.416 191.73C135.171 191.91 134.893 192.04 134.598 192.112C134.303 192.184 133.997 192.196 133.697 192.148C133.398 192.101 133.11 191.993 132.851 191.833C124.155 186.463 113.207 185.247 100.313 188.225C99.7161 188.362 99.0896 188.254 98.5713 187.925C98.053 187.595 97.6853 187.071 97.5491 186.468C97.4812 186.169 97.4724 185.86 97.5229 185.558C97.5735 185.255 97.6826 184.966 97.8439 184.707C98.0052 184.447 98.2156 184.222 98.463 184.045C98.7104 183.868 98.9899 183.742 99.2856 183.674C113.395 180.415 125.498 181.818 135.262 187.849C136.35 188.525 136.695 189.96 136.027 191.06ZM140.561 180.865C139.725 182.238 137.947 182.672 136.589 181.827C126.633 175.641 111.455 173.85 99.6788 177.463C98.1515 177.929 96.5384 177.059 96.0749 175.518C95.8537 174.777 95.9322 173.978 96.2932 173.296C96.6542 172.613 97.2683 172.103 98.0007 171.878C111.453 167.752 128.176 169.75 139.61 176.852C140.968 177.697 141.397 179.495 140.561 180.865V180.865ZM140.95 170.249C129.012 163.082 109.316 162.423 97.918 165.92C96.0877 166.481 94.1521 165.436 93.5975 163.586C93.3308 162.698 93.4242 161.738 93.8573 160.919C94.2903 160.1 95.0275 159.488 95.9068 159.218C108.991 155.203 130.742 155.979 144.486 164.226C144.878 164.46 145.22 164.77 145.493 165.139C145.766 165.507 145.964 165.926 146.077 166.371C146.19 166.817 146.214 167.281 146.149 167.736C146.084 168.192 145.931 168.629 145.698 169.025C144.725 170.689 142.593 171.237 140.952 170.249H140.95ZM182.775 171.623C176.38 170.081 175.243 168.999 175.243 166.726C175.243 164.578 177.242 163.133 180.219 163.133C183.103 163.133 185.96 164.23 188.959 166.49C189.047 166.558 189.162 166.585 189.273 166.568C189.329 166.559 189.382 166.54 189.43 166.51C189.478 166.481 189.519 166.441 189.552 166.395L192.674 161.946C192.736 161.857 192.762 161.749 192.747 161.642C192.733 161.535 192.678 161.437 192.595 161.37C189.025 158.476 185.009 157.069 180.312 157.069C173.407 157.069 168.582 161.257 168.582 167.251C168.582 173.678 172.744 175.953 179.936 177.71C186.053 179.135 187.088 180.329 187.088 182.462C187.088 184.827 185 186.298 181.639 186.298C177.906 186.298 174.858 185.024 171.452 182.046C171.367 181.974 171.258 181.937 171.147 181.943C171.032 181.952 170.93 182.006 170.86 182.091L167.356 186.303C167.21 186.481 167.228 186.741 167.396 186.893C171.359 190.469 176.234 192.356 181.497 192.356C188.937 192.356 193.745 188.247 193.745 181.885C193.758 176.517 190.578 173.544 182.789 171.629L182.775 171.623ZM210.579 165.247C207.355 165.247 204.71 166.531 202.525 169.162V166.201C202.525 166.089 202.482 165.981 202.404 165.902C202.326 165.822 202.22 165.777 202.109 165.777H196.381C196.151 165.777 195.965 165.967 195.965 166.201V199.107C195.965 199.34 196.151 199.532 196.381 199.532H202.109C202.339 199.532 202.525 199.34 202.525 199.107V188.721C204.71 191.194 207.355 192.405 210.579 192.405C216.573 192.405 222.641 187.742 222.641 178.828C222.65 169.911 216.582 165.247 210.584 165.247L210.579 165.247ZM215.98 178.828C215.98 183.365 213.216 186.535 209.252 186.535C205.338 186.535 202.383 183.222 202.383 178.828C202.383 174.433 205.338 171.121 209.252 171.121C213.149 171.12 215.98 174.361 215.98 178.827V178.828ZM238.189 165.247C230.47 165.247 224.424 171.254 224.424 178.925C224.424 186.513 230.43 192.455 238.096 192.455C245.841 192.455 251.905 186.468 251.905 178.828C251.905 171.213 245.88 165.248 238.189 165.248V165.247ZM238.189 186.58C234.084 186.58 230.988 183.244 230.988 178.825C230.988 174.386 233.978 171.165 238.096 171.165C242.227 171.165 245.341 174.499 245.341 178.922C245.341 183.361 242.333 186.58 238.189 186.58ZM268.385 165.777H262.082V159.264C262.083 159.209 262.072 159.154 262.051 159.103C262.03 159.051 262 159.005 261.961 158.965C261.923 158.926 261.877 158.895 261.826 158.873C261.776 158.852 261.721 158.841 261.667 158.84H255.939C255.709 158.84 255.518 159.031 255.518 159.264V165.777H252.767C252.537 165.777 252.351 165.967 252.351 166.201V171.176C252.351 171.409 252.537 171.6 252.767 171.6H255.518V184.474C255.518 189.674 258.079 192.311 263.135 192.311C265.187 192.311 266.89 191.882 268.496 190.961C268.629 190.89 268.708 190.747 268.708 190.595V185.855C268.708 185.712 268.633 185.574 268.509 185.498C268.449 185.459 268.38 185.437 268.308 185.434C268.237 185.43 268.166 185.446 268.102 185.48C267.001 186.039 265.935 186.298 264.741 186.298C262.905 186.298 262.082 185.453 262.082 183.566V171.602H268.385C268.615 171.602 268.801 171.412 268.801 171.178V166.204C268.803 166.148 268.794 166.093 268.774 166.041C268.754 165.989 268.724 165.942 268.685 165.902C268.647 165.863 268.601 165.831 268.55 165.81C268.499 165.789 268.445 165.779 268.39 165.779L268.385 165.777ZM290.342 165.802V165.002C290.342 162.649 291.235 161.6 293.235 161.6C294.429 161.6 295.389 161.84 296.463 162.202C296.596 162.244 296.733 162.223 296.839 162.143C296.893 162.103 296.937 162.052 296.967 161.992C296.997 161.932 297.012 161.866 297.012 161.798V156.921C297.013 156.83 296.985 156.741 296.931 156.667C296.878 156.594 296.802 156.54 296.716 156.514C295.583 156.173 294.132 155.823 291.956 155.823C286.671 155.823 283.871 158.834 283.871 164.527V165.752H281.12C280.89 165.752 280.699 165.942 280.699 166.175V171.176C280.699 171.409 280.89 171.6 281.12 171.6H283.871V191.453C283.871 191.69 284.061 191.878 284.291 191.878H290.014C290.249 191.878 290.435 191.69 290.435 191.453V171.601H295.782L303.974 191.453C303.045 193.536 302.129 193.952 300.882 193.952C299.874 193.952 298.808 193.648 297.724 193.045C297.621 192.992 297.503 192.981 297.392 193.013C297.282 193.054 297.189 193.134 297.145 193.241L295.203 197.547C295.11 197.753 295.19 197.989 295.384 198.097C297.41 199.206 299.237 199.679 301.497 199.679C305.725 199.679 308.065 197.685 310.122 192.329L320.056 166.382C320.082 166.317 320.092 166.248 320.084 166.179C320.076 166.11 320.052 166.044 320.012 165.988C319.975 165.931 319.924 165.884 319.865 165.852C319.805 165.82 319.739 165.803 319.672 165.803H313.709C313.528 165.803 313.369 165.918 313.311 166.088L307.203 183.718L300.515 166.076C300.485 165.996 300.432 165.927 300.362 165.879C300.293 165.83 300.21 165.804 300.126 165.803H290.342V165.802ZM277.612 165.777H271.884C271.654 165.777 271.464 165.967 271.464 166.201V191.453C271.464 191.69 271.654 191.878 271.884 191.878H277.612C277.842 191.878 278.032 191.69 278.032 191.453V166.203C278.032 166.147 278.021 166.092 278 166.04C277.979 165.989 277.948 165.942 277.909 165.902C277.87 165.863 277.824 165.832 277.773 165.81C277.722 165.789 277.667 165.778 277.612 165.778V165.777ZM274.781 154.278C272.512 154.278 270.672 156.134 270.672 158.427C270.672 160.722 272.512 162.58 274.781 162.58C277.05 162.58 278.886 160.722 278.886 158.427C278.886 156.135 277.046 154.278 274.781 154.278ZM324.948 173.896C322.684 173.896 320.919 172.056 320.919 169.822C320.919 167.588 322.706 165.727 324.971 165.727C327.235 165.727 329 167.567 329 169.799C329 172.033 327.213 173.896 324.948 173.896ZM324.971 166.133C322.905 166.133 321.344 167.791 321.344 169.822C321.344 171.853 322.896 173.489 324.948 173.489C327.014 173.489 328.575 171.832 328.575 169.799C328.575 167.769 327.023 166.133 324.971 166.133ZM325.864 170.218L327.005 171.831H326.041L325.015 170.351H324.135V171.831H323.33V167.555H325.214C326.2 167.555 326.846 168.064 326.846 168.919C326.85 169.62 326.448 170.049 325.868 170.218H325.864ZM325.183 168.289H324.135V169.641H325.183C325.705 169.641 326.019 169.382 326.019 168.964C326.019 168.524 325.705 168.289 325.183 168.289Z" fill="#B185DB"/>
</g>
<defs>
<clipPath id="clip0_736_380">
<rect width="247" height="75" fill="white" transform="translate(82 137)"/>
</clipPath>
</defs>
</svg>
