<svg width="411" height="348" viewBox="0 0 411 348" fill="none" xmlns="http://www.w3.org/2000/svg">
<rect width="411" height="348" rx="12" fill="#F2E9F6"/>
<g clip-path="url(#clip0_736_379)">
<path d="M337 171.056V166.496H331.234V159.407L331.04 159.466L325.625 161.093L325.518 161.125V166.496H316.971V163.504C316.971 162.111 317.288 161.044 317.913 160.333C318.534 159.631 319.422 159.274 320.555 159.274C321.369 159.274 322.212 159.462 323.06 159.833L323.273 159.927V155.124L323.173 155.088C322.381 154.809 321.305 154.668 319.971 154.668C318.289 154.668 316.761 155.028 315.428 155.74C314.095 156.453 313.046 157.472 312.311 158.766C311.579 160.06 311.208 161.553 311.208 163.206V166.496H307.193V171.056H311.208V190.267H316.971V171.056H325.518V183.264C325.518 188.292 327.933 190.84 332.695 190.84C333.478 190.84 334.301 190.75 335.142 190.574C335.998 190.392 336.581 190.212 336.924 190.018L337 189.974V185.372L336.766 185.524C336.453 185.729 336.064 185.896 335.607 186.021C335.148 186.147 334.765 186.211 334.468 186.211C333.353 186.211 332.527 185.916 332.015 185.333C331.498 184.745 331.235 183.717 331.235 182.279V171.056H337ZM294.323 186.212C292.231 186.212 290.582 185.53 289.42 184.189C288.25 182.84 287.658 180.917 287.658 178.474C287.658 175.953 288.25 173.981 289.42 172.608C290.583 171.245 292.216 170.553 294.276 170.553C296.274 170.553 297.865 171.214 299.005 172.518C300.15 173.829 300.731 175.786 300.731 178.336C300.731 180.917 300.184 182.9 299.107 184.227C298.036 185.543 296.427 186.212 294.323 186.212ZM294.579 165.924C290.588 165.924 287.418 167.072 285.158 169.337C282.9 171.603 281.755 174.738 281.755 178.656C281.755 182.378 282.872 185.372 285.077 187.553C287.282 189.734 290.283 190.839 293.995 190.839C297.864 190.839 300.971 189.675 303.23 187.378C305.489 185.084 306.633 181.979 306.633 178.152C306.633 174.372 305.559 171.356 303.44 169.19C301.32 167.022 298.339 165.924 294.579 165.924ZM272.462 165.924C269.748 165.924 267.502 166.606 265.787 167.95C264.061 169.303 263.185 171.077 263.185 173.224C263.185 174.34 263.374 175.331 263.746 176.172C264.12 177.015 264.699 177.758 265.469 178.381C266.232 179 267.41 179.647 268.972 180.306C270.284 180.837 271.263 181.285 271.885 181.639C272.493 181.986 272.924 182.334 273.168 182.674C273.405 183.006 273.525 183.46 273.525 184.021C273.525 185.618 272.307 186.395 269.801 186.395C268.872 186.395 267.812 186.204 266.651 185.829C265.498 185.459 264.41 184.917 263.424 184.222L263.185 184.053V189.503L263.273 189.543C264.088 189.913 265.116 190.225 266.328 190.47C267.538 190.716 268.637 190.84 269.591 190.84C272.537 190.84 274.909 190.155 276.64 188.802C278.382 187.44 279.265 185.625 279.265 183.403C279.265 181.801 278.79 180.427 277.853 179.319C276.923 178.22 275.308 177.211 273.056 176.319C271.261 175.612 270.112 175.024 269.638 174.574C269.181 174.138 268.948 173.522 268.948 172.743C268.948 172.051 269.235 171.497 269.823 171.049C270.416 170.598 271.241 170.369 272.276 170.369C273.236 170.369 274.218 170.518 275.196 170.81C276.172 171.102 277.029 171.493 277.745 171.971L277.981 172.129V166.96L277.89 166.922C277.23 166.643 276.359 166.405 275.301 166.212C274.248 166.02 273.293 165.924 272.462 165.924ZM248.161 186.212C246.07 186.212 244.42 185.53 243.258 184.189C242.088 182.84 241.497 180.917 241.497 178.474C241.497 175.953 242.089 173.981 243.259 172.608C244.421 171.245 246.054 170.553 248.115 170.553C250.112 170.553 251.703 171.214 252.843 172.518C253.988 173.829 254.569 175.786 254.569 178.336C254.569 180.917 254.023 182.9 252.945 184.227C251.875 185.543 250.266 186.212 248.161 186.212ZM248.418 165.924C244.426 165.924 241.256 167.072 238.997 169.337C236.739 171.603 235.593 174.738 235.593 178.656C235.593 182.38 236.711 185.372 238.916 187.553C241.121 189.734 244.122 190.839 247.834 190.839C251.702 190.839 254.81 189.675 257.069 187.378C259.327 185.084 260.472 181.979 260.472 178.152C260.472 174.372 259.398 171.356 257.278 169.19C255.158 167.022 252.177 165.924 248.418 165.924ZM226.844 170.613V166.496H221.151V190.266H226.844V178.107C226.844 176.039 227.322 174.341 228.264 173.058C229.193 171.79 230.432 171.148 231.945 171.148C232.458 171.148 233.034 171.231 233.657 171.395C234.274 171.558 234.721 171.736 234.985 171.922L235.224 172.093V166.456L235.132 166.417C234.602 166.195 233.852 166.084 232.903 166.084C231.472 166.084 230.192 166.535 229.095 167.424C228.132 168.206 227.437 169.277 226.905 170.613H226.844ZM210.956 165.924C208.344 165.924 206.015 166.474 204.033 167.558C202.048 168.645 200.512 170.196 199.467 172.169C198.427 174.138 197.899 176.437 197.899 179.001C197.899 181.247 198.411 183.308 199.423 185.124C200.436 186.944 201.869 188.367 203.683 189.354C205.495 190.34 207.589 190.84 209.907 190.84C212.613 190.84 214.923 190.309 216.775 189.261L216.849 189.219V184.096L216.61 184.268C215.771 184.868 214.834 185.347 213.825 185.692C212.819 186.037 211.901 186.212 211.097 186.212C208.863 186.212 207.07 185.525 205.768 184.172C204.464 182.817 203.802 180.913 203.802 178.519C203.802 176.109 204.492 174.157 205.851 172.717C207.207 171.281 209.003 170.553 211.191 170.553C213.062 170.553 214.886 171.175 216.611 172.404L216.849 172.574V167.177L216.772 167.134C216.123 166.777 215.238 166.482 214.139 166.259C213.044 166.036 211.973 165.924 210.956 165.924ZM193.978 166.496H188.285V190.266H193.978V166.496ZM191.19 156.37C190.253 156.37 189.436 156.684 188.764 157.304C188.09 157.927 187.748 158.711 187.748 159.636C187.748 160.546 188.086 161.316 188.754 161.922C189.417 162.526 190.237 162.832 191.19 162.832C192.143 162.832 192.966 162.526 193.637 161.923C194.313 161.316 194.656 160.547 194.656 159.636C194.656 158.743 194.322 157.967 193.665 157.329C193.009 156.693 192.175 156.37 191.19 156.37ZM176.986 164.743V190.266H182.796V157.098H174.754L164.533 181.734L154.615 157.098H146.246V190.266H151.706V164.74H151.893L162.367 190.266H166.488L176.798 164.743H176.986Z" fill="#B185DB"/>
<path d="M99.7814 172.318H73V146.014H99.7814V172.318Z" fill="#B185DB"/>
<path d="M129.351 172.318H102.57V146.014H129.351V172.318Z" fill="#B185DB"/>
<path d="M99.7806 201.37H73V175.067H99.7806V201.37Z" fill="#B185DB"/>
<path d="M129.351 201.37H102.57V175.067H129.351V201.37Z" fill="#B185DB"/>
</g>
<defs>
<clipPath id="clip0_736_379">
<rect width="264" height="55.3846" fill="white" transform="translate(73 146)"/>
</clipPath>
</defs>
</svg>
