<svg width="411" height="348" viewBox="0 0 411 348" fill="none" xmlns="http://www.w3.org/2000/svg">
<path d="M1.27841 318V306.364H3.03409V316.489H8.30682V318H1.27841ZM13.8494 318.176C13.0313 318.176 12.3172 317.989 11.7074 317.614C11.0975 317.239 10.6241 316.714 10.2869 316.04C9.94981 315.366 9.78125 314.578 9.78125 313.676C9.78125 312.771 9.94981 311.979 10.2869 311.301C10.6241 310.623 11.0975 310.097 11.7074 309.722C12.3172 309.347 13.0313 309.159 13.8494 309.159C14.6676 309.159 15.3816 309.347 15.9915 309.722C16.6013 310.097 17.0748 310.623 17.4119 311.301C17.7491 311.979 17.9176 312.771 17.9176 313.676C17.9176 314.578 17.7491 315.366 17.4119 316.04C17.0748 316.714 16.6013 317.239 15.9915 317.614C15.3816 317.989 14.6676 318.176 13.8494 318.176ZM13.8551 316.75C14.3854 316.75 14.8248 316.61 15.1733 316.33C15.5218 316.049 15.7794 315.676 15.946 315.21C16.1165 314.744 16.2017 314.231 16.2017 313.67C16.2017 313.114 16.1165 312.602 15.946 312.136C15.7794 311.667 15.5218 311.29 15.1733 311.006C14.8248 310.722 14.3854 310.58 13.8551 310.58C13.321 310.58 12.8778 310.722 12.5256 311.006C12.1771 311.29 11.9176 311.667 11.7472 312.136C11.5805 312.602 11.4972 313.114 11.4972 313.67C11.4972 314.231 11.5805 314.744 11.7472 315.21C11.9176 315.676 12.1771 316.049 12.5256 316.33C12.8778 316.61 13.321 316.75 13.8551 316.75ZM19.8139 318V309.273H21.456V310.659H21.5469C21.706 310.189 21.9863 309.82 22.3878 309.551C22.7931 309.278 23.2514 309.142 23.7628 309.142C23.8688 309.142 23.9938 309.146 24.1378 309.153C24.2855 309.161 24.401 309.17 24.4844 309.182V310.807C24.4162 310.788 24.295 310.767 24.1207 310.744C23.9465 310.718 23.7723 310.705 23.598 310.705C23.1965 310.705 22.8385 310.79 22.5241 310.96C22.2135 311.127 21.9673 311.36 21.7855 311.659C21.6037 311.955 21.5128 312.292 21.5128 312.67V318H19.8139ZM29.4034 318.176C28.5436 318.176 27.803 317.992 27.1818 317.625C26.5644 317.254 26.0871 316.733 25.75 316.062C25.4167 315.388 25.25 314.598 25.25 313.693C25.25 312.799 25.4167 312.011 25.75 311.33C26.0871 310.648 26.5568 310.116 27.1591 309.733C27.7652 309.35 28.4735 309.159 29.2841 309.159C29.7765 309.159 30.2538 309.241 30.7159 309.403C31.178 309.566 31.5928 309.822 31.9602 310.17C32.3277 310.519 32.6174 310.972 32.8295 311.528C33.0417 312.081 33.1477 312.754 33.1477 313.545V314.148H26.2102V312.875H31.483C31.483 312.428 31.392 312.032 31.2102 311.688C31.0284 311.339 30.7727 311.064 30.4432 310.864C30.1174 310.663 29.7348 310.562 29.2955 310.562C28.8182 310.562 28.4015 310.68 28.0455 310.915C27.6932 311.146 27.4205 311.449 27.2273 311.824C27.0379 312.195 26.9432 312.598 26.9432 313.034V314.028C26.9432 314.612 27.0455 315.108 27.25 315.517C27.4583 315.926 27.7481 316.239 28.1193 316.455C28.4905 316.667 28.9242 316.773 29.4205 316.773C29.7424 316.773 30.036 316.727 30.3011 316.636C30.5663 316.542 30.7955 316.402 30.9886 316.216C31.1818 316.03 31.3295 315.801 31.4318 315.528L33.0398 315.818C32.911 316.292 32.6799 316.706 32.3466 317.062C32.017 317.415 31.6023 317.689 31.1023 317.886C30.6061 318.08 30.0398 318.176 29.4034 318.176ZM35.0327 318V309.273H36.6634V310.693H36.7713C36.9531 310.212 37.2505 309.837 37.6634 309.568C38.0762 309.295 38.5705 309.159 39.1463 309.159C39.7296 309.159 40.2183 309.295 40.6122 309.568C41.0099 309.841 41.3035 310.216 41.4929 310.693H41.5838C41.7921 310.227 42.1236 309.856 42.5781 309.58C43.0327 309.299 43.5743 309.159 44.2031 309.159C44.9948 309.159 45.6406 309.407 46.1406 309.903C46.6444 310.4 46.8963 311.148 46.8963 312.148V318H45.1974V312.307C45.1974 311.716 45.0365 311.288 44.7145 311.023C44.3925 310.758 44.008 310.625 43.5611 310.625C43.008 310.625 42.5781 310.795 42.2713 311.136C41.9645 311.473 41.8111 311.907 41.8111 312.438V318H40.1179V312.199C40.1179 311.725 39.9702 311.345 39.6747 311.057C39.3793 310.769 38.9948 310.625 38.5213 310.625C38.1993 310.625 37.902 310.71 37.6293 310.881C37.3603 311.047 37.1425 311.28 36.9759 311.58C36.813 311.879 36.7315 312.225 36.7315 312.619V318H35.0327ZM53.4077 318V309.273H55.1065V318H53.4077ZM54.2656 307.926C53.9702 307.926 53.7164 307.828 53.5043 307.631C53.2959 307.43 53.1918 307.191 53.1918 306.915C53.1918 306.634 53.2959 306.396 53.5043 306.199C53.7164 305.998 53.9702 305.898 54.2656 305.898C54.5611 305.898 54.813 305.998 55.0213 306.199C55.2334 306.396 55.3395 306.634 55.3395 306.915C55.3395 307.191 55.2334 307.43 55.0213 307.631C54.813 307.828 54.5611 307.926 54.2656 307.926ZM57.392 321.273V309.273H59.0511V310.688H59.1932C59.2917 310.506 59.4337 310.295 59.6193 310.057C59.8049 309.818 60.0625 309.61 60.392 309.432C60.7216 309.25 61.1572 309.159 61.6989 309.159C62.4034 309.159 63.0322 309.337 63.5852 309.693C64.1383 310.049 64.572 310.562 64.8864 311.233C65.2045 311.903 65.3636 312.71 65.3636 313.653C65.3636 314.597 65.2064 315.405 64.892 316.08C64.5777 316.75 64.1458 317.267 63.5966 317.631C63.0473 317.991 62.4205 318.17 61.7159 318.17C61.1856 318.17 60.7519 318.081 60.4148 317.903C60.0814 317.725 59.8201 317.517 59.6307 317.278C59.4413 317.04 59.2955 316.828 59.1932 316.642H59.0909V321.273H57.392ZM59.0568 313.636C59.0568 314.25 59.1458 314.788 59.3239 315.25C59.5019 315.712 59.7595 316.074 60.0966 316.335C60.4337 316.593 60.8466 316.722 61.3352 316.722C61.8428 316.722 62.267 316.587 62.608 316.318C62.9489 316.045 63.2064 315.676 63.3807 315.21C63.5587 314.744 63.6477 314.22 63.6477 313.636C63.6477 313.061 63.5606 312.544 63.3864 312.085C63.2159 311.627 62.9583 311.265 62.6136 311C62.2727 310.735 61.8466 310.602 61.3352 310.602C60.8428 310.602 60.4261 310.729 60.0852 310.983C59.7481 311.237 59.4924 311.591 59.3182 312.045C59.1439 312.5 59.0568 313.03 59.0568 313.636ZM73.8068 311.403L72.267 311.676C72.2027 311.479 72.1004 311.292 71.9602 311.114C71.8239 310.936 71.6383 310.79 71.4034 310.676C71.1686 310.562 70.875 310.506 70.5227 310.506C70.0417 310.506 69.6402 310.614 69.3182 310.83C68.9962 311.042 68.8352 311.316 68.8352 311.653C68.8352 311.945 68.9432 312.18 69.1591 312.358C69.375 312.536 69.7235 312.682 70.2045 312.795L71.5909 313.114C72.3939 313.299 72.9924 313.585 73.3864 313.972C73.7803 314.358 73.9773 314.86 73.9773 315.477C73.9773 316 73.8258 316.466 73.5227 316.875C73.2235 317.28 72.8049 317.598 72.267 317.83C71.733 318.061 71.1136 318.176 70.4091 318.176C69.4318 318.176 68.6345 317.968 68.017 317.551C67.3996 317.131 67.0208 316.534 66.8807 315.761L68.5227 315.511C68.625 315.939 68.8352 316.263 69.1534 316.483C69.4716 316.699 69.8864 316.807 70.3977 316.807C70.9545 316.807 71.3996 316.691 71.733 316.46C72.0663 316.225 72.233 315.939 72.233 315.602C72.233 315.33 72.1307 315.1 71.9261 314.915C71.7254 314.729 71.4167 314.589 71 314.494L69.5227 314.17C68.7083 313.985 68.1061 313.689 67.7159 313.284C67.3295 312.879 67.1364 312.366 67.1364 311.744C67.1364 311.229 67.2803 310.778 67.5682 310.392C67.8561 310.006 68.2538 309.705 68.7614 309.489C69.2689 309.269 69.8504 309.159 70.5057 309.159C71.4489 309.159 72.1913 309.364 72.733 309.773C73.2746 310.178 73.6326 310.722 73.8068 311.403ZM81.3736 314.381V309.273H83.0781V318H81.4077V316.489H81.3168C81.116 316.955 80.794 317.343 80.3509 317.653C79.9115 317.96 79.3641 318.114 78.7088 318.114C78.1482 318.114 77.652 317.991 77.2202 317.744C76.7921 317.494 76.455 317.125 76.2088 316.636C75.9664 316.148 75.8452 315.544 75.8452 314.824V309.273H77.544V314.619C77.544 315.214 77.7088 315.687 78.0384 316.04C78.3679 316.392 78.7959 316.568 79.3224 316.568C79.6406 316.568 79.9569 316.489 80.2713 316.33C80.5895 316.17 80.8527 315.93 81.0611 315.608C81.2732 315.286 81.3774 314.877 81.3736 314.381ZM85.3608 318V309.273H86.9915V310.693H87.0994C87.2813 310.212 87.5786 309.837 87.9915 309.568C88.4044 309.295 88.8987 309.159 89.4744 309.159C90.0578 309.159 90.5464 309.295 90.9403 309.568C91.3381 309.841 91.6316 310.216 91.821 310.693H91.9119C92.1203 310.227 92.4517 309.856 92.9062 309.58C93.3608 309.299 93.9025 309.159 94.5312 309.159C95.3229 309.159 95.9688 309.407 96.4688 309.903C96.9725 310.4 97.2244 311.148 97.2244 312.148V318H95.5256V312.307C95.5256 311.716 95.3646 311.288 95.0426 311.023C94.7206 310.758 94.3362 310.625 93.8892 310.625C93.3362 310.625 92.9062 310.795 92.5994 311.136C92.2926 311.473 92.1392 311.907 92.1392 312.438V318H90.446V312.199C90.446 311.725 90.2983 311.345 90.0028 311.057C89.7074 310.769 89.3229 310.625 88.8494 310.625C88.5275 310.625 88.2301 310.71 87.9574 310.881C87.6884 311.047 87.4706 311.28 87.304 311.58C87.1411 311.879 87.0597 312.225 87.0597 312.619V318H85.3608ZM107.003 318.17C106.298 318.17 105.67 317.991 105.116 317.631C104.567 317.267 104.135 316.75 103.821 316.08C103.51 315.405 103.355 314.597 103.355 313.653C103.355 312.71 103.512 311.903 103.827 311.233C104.145 310.562 104.58 310.049 105.134 309.693C105.687 309.337 106.313 309.159 107.014 309.159C107.556 309.159 107.991 309.25 108.321 309.432C108.654 309.61 108.912 309.818 109.094 310.057C109.279 310.295 109.423 310.506 109.526 310.688H109.628V306.364H111.327V318H109.668V316.642H109.526C109.423 316.828 109.276 317.04 109.082 317.278C108.893 317.517 108.632 317.725 108.298 317.903C107.965 318.081 107.533 318.17 107.003 318.17ZM107.378 316.722C107.866 316.722 108.279 316.593 108.616 316.335C108.957 316.074 109.215 315.712 109.389 315.25C109.567 314.788 109.656 314.25 109.656 313.636C109.656 313.03 109.569 312.5 109.395 312.045C109.221 311.591 108.965 311.237 108.628 310.983C108.291 310.729 107.874 310.602 107.378 310.602C106.866 310.602 106.44 310.735 106.099 311C105.759 311.265 105.501 311.627 105.327 312.085C105.156 312.544 105.071 313.061 105.071 313.636C105.071 314.22 105.158 314.744 105.332 315.21C105.507 315.676 105.764 316.045 106.105 316.318C106.45 316.587 106.874 316.722 107.378 316.722ZM117.428 318.176C116.609 318.176 115.895 317.989 115.286 317.614C114.676 317.239 114.202 316.714 113.865 316.04C113.528 315.366 113.359 314.578 113.359 313.676C113.359 312.771 113.528 311.979 113.865 311.301C114.202 310.623 114.676 310.097 115.286 309.722C115.895 309.347 116.609 309.159 117.428 309.159C118.246 309.159 118.96 309.347 119.57 309.722C120.179 310.097 120.653 310.623 120.99 311.301C121.327 311.979 121.496 312.771 121.496 313.676C121.496 314.578 121.327 315.366 120.99 316.04C120.653 316.714 120.179 317.239 119.57 317.614C118.96 317.989 118.246 318.176 117.428 318.176ZM117.433 316.75C117.964 316.75 118.403 316.61 118.751 316.33C119.1 316.049 119.357 315.676 119.524 315.21C119.695 314.744 119.78 314.231 119.78 313.67C119.78 313.114 119.695 312.602 119.524 312.136C119.357 311.667 119.1 311.29 118.751 311.006C118.403 310.722 117.964 310.58 117.433 310.58C116.899 310.58 116.456 310.722 116.104 311.006C115.755 311.29 115.496 311.667 115.325 312.136C115.159 312.602 115.075 313.114 115.075 313.67C115.075 314.231 115.159 314.744 115.325 315.21C115.496 315.676 115.755 316.049 116.104 316.33C116.456 316.61 116.899 316.75 117.433 316.75ZM125.091 306.364V318H123.392V306.364H125.091ZM131.053 318.176C130.234 318.176 129.52 317.989 128.911 317.614C128.301 317.239 127.827 316.714 127.49 316.04C127.153 315.366 126.984 314.578 126.984 313.676C126.984 312.771 127.153 311.979 127.49 311.301C127.827 310.623 128.301 310.097 128.911 309.722C129.52 309.347 130.234 309.159 131.053 309.159C131.871 309.159 132.585 309.347 133.195 309.722C133.804 310.097 134.278 310.623 134.615 311.301C134.952 311.979 135.121 312.771 135.121 313.676C135.121 314.578 134.952 315.366 134.615 316.04C134.278 316.714 133.804 317.239 133.195 317.614C132.585 317.989 131.871 318.176 131.053 318.176ZM131.058 316.75C131.589 316.75 132.028 316.61 132.376 316.33C132.725 316.049 132.982 315.676 133.149 315.21C133.32 314.744 133.405 314.231 133.405 313.67C133.405 313.114 133.32 312.602 133.149 312.136C132.982 311.667 132.725 311.29 132.376 311.006C132.028 310.722 131.589 310.58 131.058 310.58C130.524 310.58 130.081 310.722 129.729 311.006C129.38 311.29 129.121 311.667 128.95 312.136C128.784 312.602 128.7 313.114 128.7 313.67C128.7 314.231 128.784 314.744 128.95 315.21C129.121 315.676 129.38 316.049 129.729 316.33C130.081 316.61 130.524 316.75 131.058 316.75ZM137.017 318V309.273H138.659V310.659H138.75C138.909 310.189 139.189 309.82 139.591 309.551C139.996 309.278 140.455 309.142 140.966 309.142C141.072 309.142 141.197 309.146 141.341 309.153C141.489 309.161 141.604 309.17 141.688 309.182V310.807C141.619 310.788 141.498 310.767 141.324 310.744C141.15 310.718 140.975 310.705 140.801 310.705C140.4 310.705 140.042 310.79 139.727 310.96C139.417 311.127 139.17 311.36 138.989 311.659C138.807 311.955 138.716 312.292 138.716 312.67V318H137.017ZM153.932 311.403L152.392 311.676C152.328 311.479 152.225 311.292 152.085 311.114C151.949 310.936 151.763 310.79 151.528 310.676C151.294 310.562 151 310.506 150.648 310.506C150.167 310.506 149.765 310.614 149.443 310.83C149.121 311.042 148.96 311.316 148.96 311.653C148.96 311.945 149.068 312.18 149.284 312.358C149.5 312.536 149.848 312.682 150.33 312.795L151.716 313.114C152.519 313.299 153.117 313.585 153.511 313.972C153.905 314.358 154.102 314.86 154.102 315.477C154.102 316 153.951 316.466 153.648 316.875C153.348 317.28 152.93 317.598 152.392 317.83C151.858 318.061 151.239 318.176 150.534 318.176C149.557 318.176 148.759 317.968 148.142 317.551C147.525 317.131 147.146 316.534 147.006 315.761L148.648 315.511C148.75 315.939 148.96 316.263 149.278 316.483C149.597 316.699 150.011 316.807 150.523 316.807C151.08 316.807 151.525 316.691 151.858 316.46C152.191 316.225 152.358 315.939 152.358 315.602C152.358 315.33 152.256 315.1 152.051 314.915C151.85 314.729 151.542 314.589 151.125 314.494L149.648 314.17C148.833 313.985 148.231 313.689 147.841 313.284C147.455 312.879 147.261 312.366 147.261 311.744C147.261 311.229 147.405 310.778 147.693 310.392C147.981 310.006 148.379 309.705 148.886 309.489C149.394 309.269 149.975 309.159 150.631 309.159C151.574 309.159 152.316 309.364 152.858 309.773C153.4 310.178 153.758 310.722 153.932 311.403ZM155.97 318V309.273H157.669V318H155.97ZM156.828 307.926C156.533 307.926 156.279 307.828 156.067 307.631C155.858 307.43 155.754 307.191 155.754 306.915C155.754 306.634 155.858 306.396 156.067 306.199C156.279 305.998 156.533 305.898 156.828 305.898C157.124 305.898 157.375 305.998 157.584 306.199C157.796 306.396 157.902 306.634 157.902 306.915C157.902 307.191 157.796 307.43 157.584 307.631C157.375 307.828 157.124 307.926 156.828 307.926ZM164.028 309.273V310.636H159.261V309.273H164.028ZM160.54 307.182H162.239V315.438C162.239 315.767 162.288 316.015 162.386 316.182C162.485 316.345 162.612 316.456 162.767 316.517C162.926 316.574 163.098 316.602 163.284 316.602C163.42 316.602 163.54 316.593 163.642 316.574C163.744 316.555 163.824 316.54 163.881 316.528L164.188 317.932C164.089 317.97 163.949 318.008 163.767 318.045C163.585 318.087 163.358 318.11 163.085 318.114C162.638 318.121 162.222 318.042 161.835 317.875C161.449 317.708 161.136 317.451 160.898 317.102C160.659 316.754 160.54 316.316 160.54 315.79V307.182ZM172.682 318.193C172.129 318.193 171.629 318.091 171.182 317.886C170.735 317.678 170.381 317.377 170.119 316.983C169.862 316.589 169.733 316.106 169.733 315.534C169.733 315.042 169.828 314.636 170.017 314.318C170.206 314 170.462 313.748 170.784 313.562C171.106 313.377 171.466 313.237 171.864 313.142C172.261 313.047 172.667 312.975 173.08 312.926C173.602 312.866 174.027 312.816 174.352 312.778C174.678 312.737 174.915 312.67 175.062 312.58C175.21 312.489 175.284 312.341 175.284 312.136V312.097C175.284 311.6 175.144 311.216 174.864 310.943C174.587 310.67 174.174 310.534 173.625 310.534C173.053 310.534 172.602 310.661 172.273 310.915C171.947 311.165 171.722 311.443 171.597 311.75L170 311.386C170.189 310.856 170.466 310.428 170.83 310.102C171.197 309.773 171.619 309.534 172.097 309.386C172.574 309.235 173.076 309.159 173.602 309.159C173.951 309.159 174.32 309.201 174.71 309.284C175.104 309.364 175.472 309.511 175.812 309.727C176.157 309.943 176.439 310.252 176.659 310.653C176.879 311.051 176.989 311.568 176.989 312.205V318H175.33V316.807H175.261C175.152 317.027 174.987 317.242 174.767 317.455C174.547 317.667 174.265 317.843 173.92 317.983C173.576 318.123 173.163 318.193 172.682 318.193ZM173.051 316.83C173.521 316.83 173.922 316.737 174.256 316.551C174.593 316.366 174.848 316.123 175.023 315.824C175.201 315.521 175.29 315.197 175.29 314.852V313.727C175.229 313.788 175.112 313.845 174.938 313.898C174.767 313.947 174.572 313.991 174.352 314.028C174.133 314.062 173.919 314.095 173.71 314.125C173.502 314.152 173.328 314.174 173.188 314.193C172.858 314.235 172.557 314.305 172.284 314.403C172.015 314.502 171.799 314.644 171.636 314.83C171.477 315.011 171.398 315.254 171.398 315.557C171.398 315.977 171.553 316.295 171.864 316.511C172.174 316.723 172.57 316.83 173.051 316.83ZM179.251 318V309.273H180.882V310.693H180.99C181.172 310.212 181.469 309.837 181.882 309.568C182.295 309.295 182.789 309.159 183.365 309.159C183.948 309.159 184.437 309.295 184.831 309.568C185.229 309.841 185.522 310.216 185.712 310.693H185.803C186.011 310.227 186.342 309.856 186.797 309.58C187.251 309.299 187.793 309.159 188.422 309.159C189.214 309.159 189.859 309.407 190.359 309.903C190.863 310.4 191.115 311.148 191.115 312.148V318H189.416V312.307C189.416 311.716 189.255 311.288 188.933 311.023C188.611 310.758 188.227 310.625 187.78 310.625C187.227 310.625 186.797 310.795 186.49 311.136C186.183 311.473 186.03 311.907 186.03 312.438V318H184.337V312.199C184.337 311.725 184.189 311.345 183.893 311.057C183.598 310.769 183.214 310.625 182.74 310.625C182.418 310.625 182.121 310.71 181.848 310.881C181.579 311.047 181.361 311.28 181.195 311.58C181.032 311.879 180.95 312.225 180.95 312.619V318H179.251ZM197.153 318.176C196.294 318.176 195.553 317.992 194.932 317.625C194.314 317.254 193.837 316.733 193.5 316.062C193.167 315.388 193 314.598 193 313.693C193 312.799 193.167 312.011 193.5 311.33C193.837 310.648 194.307 310.116 194.909 309.733C195.515 309.35 196.223 309.159 197.034 309.159C197.527 309.159 198.004 309.241 198.466 309.403C198.928 309.566 199.343 309.822 199.71 310.17C200.078 310.519 200.367 310.972 200.58 311.528C200.792 312.081 200.898 312.754 200.898 313.545V314.148H193.96V312.875H199.233C199.233 312.428 199.142 312.032 198.96 311.688C198.778 311.339 198.523 311.064 198.193 310.864C197.867 310.663 197.485 310.562 197.045 310.562C196.568 310.562 196.152 310.68 195.795 310.915C195.443 311.146 195.17 311.449 194.977 311.824C194.788 312.195 194.693 312.598 194.693 313.034V314.028C194.693 314.612 194.795 315.108 195 315.517C195.208 315.926 195.498 316.239 195.869 316.455C196.241 316.667 196.674 316.773 197.17 316.773C197.492 316.773 197.786 316.727 198.051 316.636C198.316 316.542 198.545 316.402 198.739 316.216C198.932 316.03 199.08 315.801 199.182 315.528L200.79 315.818C200.661 316.292 200.43 316.706 200.097 317.062C199.767 317.415 199.352 317.689 198.852 317.886C198.356 318.08 197.79 318.176 197.153 318.176ZM206.857 309.273V310.636H202.089V309.273H206.857ZM203.368 307.182H205.067V315.438C205.067 315.767 205.116 316.015 205.214 316.182C205.313 316.345 205.44 316.456 205.595 316.517C205.754 316.574 205.927 316.602 206.112 316.602C206.249 316.602 206.368 316.593 206.47 316.574C206.572 316.555 206.652 316.54 206.709 316.528L207.016 317.932C206.917 317.97 206.777 318.008 206.595 318.045C206.413 318.087 206.186 318.11 205.913 318.114C205.466 318.121 205.05 318.042 204.663 317.875C204.277 317.708 203.964 317.451 203.726 317.102C203.487 316.754 203.368 316.316 203.368 315.79V307.182ZM210.946 316.409L210.861 317.028C210.804 317.483 210.707 317.956 210.571 318.449C210.438 318.945 210.3 319.405 210.156 319.83C210.016 320.254 209.901 320.591 209.81 320.841H208.605C208.654 320.606 208.723 320.288 208.81 319.886C208.897 319.489 208.982 319.044 209.065 318.551C209.149 318.059 209.211 317.557 209.253 317.045L209.31 316.409H210.946ZM221.068 318.176C220.223 318.176 219.496 317.985 218.886 317.602C218.28 317.216 217.814 316.684 217.489 316.006C217.163 315.328 217 314.551 217 313.676C217 312.79 217.167 312.008 217.5 311.33C217.833 310.648 218.303 310.116 218.909 309.733C219.515 309.35 220.229 309.159 221.051 309.159C221.714 309.159 222.305 309.282 222.824 309.528C223.343 309.771 223.761 310.112 224.08 310.551C224.402 310.991 224.593 311.504 224.653 312.091H223C222.909 311.682 222.701 311.33 222.375 311.034C222.053 310.739 221.621 310.591 221.08 310.591C220.606 310.591 220.191 310.716 219.835 310.966C219.483 311.212 219.208 311.564 219.011 312.023C218.814 312.477 218.716 313.015 218.716 313.636C218.716 314.273 218.813 314.822 219.006 315.284C219.199 315.746 219.472 316.104 219.824 316.358C220.18 316.612 220.598 316.739 221.08 316.739C221.402 316.739 221.693 316.68 221.955 316.562C222.22 316.441 222.441 316.269 222.619 316.045C222.801 315.822 222.928 315.553 223 315.239H224.653C224.593 315.803 224.409 316.307 224.102 316.75C223.795 317.193 223.384 317.542 222.869 317.795C222.358 318.049 221.758 318.176 221.068 318.176ZM230.146 318.176C229.328 318.176 228.614 317.989 228.004 317.614C227.394 317.239 226.921 316.714 226.584 316.04C226.247 315.366 226.078 314.578 226.078 313.676C226.078 312.771 226.247 311.979 226.584 311.301C226.921 310.623 227.394 310.097 228.004 309.722C228.614 309.347 229.328 309.159 230.146 309.159C230.964 309.159 231.679 309.347 232.288 309.722C232.898 310.097 233.372 310.623 233.709 311.301C234.046 311.979 234.214 312.771 234.214 313.676C234.214 314.578 234.046 315.366 233.709 316.04C233.372 316.714 232.898 317.239 232.288 317.614C231.679 317.989 230.964 318.176 230.146 318.176ZM230.152 316.75C230.682 316.75 231.122 316.61 231.47 316.33C231.819 316.049 232.076 315.676 232.243 315.21C232.413 314.744 232.499 314.231 232.499 313.67C232.499 313.114 232.413 312.602 232.243 312.136C232.076 311.667 231.819 311.29 231.47 311.006C231.122 310.722 230.682 310.58 230.152 310.58C229.618 310.58 229.175 310.722 228.822 311.006C228.474 311.29 228.214 311.667 228.044 312.136C227.877 312.602 227.794 313.114 227.794 313.67C227.794 314.231 227.877 314.744 228.044 315.21C228.214 315.676 228.474 316.049 228.822 316.33C229.175 316.61 229.618 316.75 230.152 316.75ZM237.81 312.818V318H236.111V309.273H237.741V310.693H237.849C238.05 310.231 238.365 309.86 238.793 309.58C239.224 309.299 239.768 309.159 240.423 309.159C241.018 309.159 241.539 309.284 241.986 309.534C242.433 309.78 242.779 310.148 243.026 310.636C243.272 311.125 243.395 311.729 243.395 312.449V318H241.696V312.653C241.696 312.021 241.531 311.527 241.202 311.17C240.872 310.811 240.42 310.631 239.844 310.631C239.45 310.631 239.099 310.716 238.793 310.886C238.49 311.057 238.249 311.307 238.071 311.636C237.897 311.962 237.81 312.356 237.81 312.818ZM252.213 311.403L250.673 311.676C250.609 311.479 250.507 311.292 250.366 311.114C250.23 310.936 250.045 310.79 249.81 310.676C249.575 310.562 249.281 310.506 248.929 310.506C248.448 310.506 248.046 310.614 247.724 310.83C247.402 311.042 247.241 311.316 247.241 311.653C247.241 311.945 247.349 312.18 247.565 312.358C247.781 312.536 248.13 312.682 248.611 312.795L249.997 313.114C250.8 313.299 251.399 313.585 251.793 313.972C252.187 314.358 252.384 314.86 252.384 315.477C252.384 316 252.232 316.466 251.929 316.875C251.63 317.28 251.211 317.598 250.673 317.83C250.139 318.061 249.52 318.176 248.815 318.176C247.838 318.176 247.041 317.968 246.423 317.551C245.806 317.131 245.427 316.534 245.287 315.761L246.929 315.511C247.031 315.939 247.241 316.263 247.56 316.483C247.878 316.699 248.293 316.807 248.804 316.807C249.361 316.807 249.806 316.691 250.139 316.46C250.473 316.225 250.639 315.939 250.639 315.602C250.639 315.33 250.537 315.1 250.332 314.915C250.132 314.729 249.823 314.589 249.406 314.494L247.929 314.17C247.115 313.985 246.512 313.689 246.122 313.284C245.736 312.879 245.543 312.366 245.543 311.744C245.543 311.229 245.687 310.778 245.974 310.392C246.262 310.006 246.66 309.705 247.168 309.489C247.675 309.269 248.257 309.159 248.912 309.159C249.855 309.159 250.598 309.364 251.139 309.773C251.681 310.178 252.039 310.722 252.213 311.403ZM258.013 318.176C257.153 318.176 256.412 317.992 255.791 317.625C255.174 317.254 254.696 316.733 254.359 316.062C254.026 315.388 253.859 314.598 253.859 313.693C253.859 312.799 254.026 312.011 254.359 311.33C254.696 310.648 255.166 310.116 255.768 309.733C256.375 309.35 257.083 309.159 257.893 309.159C258.386 309.159 258.863 309.241 259.325 309.403C259.787 309.566 260.202 309.822 260.57 310.17C260.937 310.519 261.227 310.972 261.439 311.528C261.651 312.081 261.757 312.754 261.757 313.545V314.148H254.82V312.875H260.092C260.092 312.428 260.001 312.032 259.82 311.688C259.638 311.339 259.382 311.064 259.053 310.864C258.727 310.663 258.344 310.562 257.905 310.562C257.428 310.562 257.011 310.68 256.655 310.915C256.303 311.146 256.03 311.449 255.837 311.824C255.647 312.195 255.553 312.598 255.553 313.034V314.028C255.553 314.612 255.655 315.108 255.859 315.517C256.068 315.926 256.357 316.239 256.729 316.455C257.1 316.667 257.534 316.773 258.03 316.773C258.352 316.773 258.645 316.727 258.911 316.636C259.176 316.542 259.405 316.402 259.598 316.216C259.791 316.03 259.939 315.801 260.041 315.528L261.649 315.818C261.52 316.292 261.289 316.706 260.956 317.062C260.626 317.415 260.212 317.689 259.712 317.886C259.215 318.08 258.649 318.176 258.013 318.176ZM267.318 318.176C266.473 318.176 265.746 317.985 265.136 317.602C264.53 317.216 264.064 316.684 263.739 316.006C263.413 315.328 263.25 314.551 263.25 313.676C263.25 312.79 263.417 312.008 263.75 311.33C264.083 310.648 264.553 310.116 265.159 309.733C265.765 309.35 266.479 309.159 267.301 309.159C267.964 309.159 268.555 309.282 269.074 309.528C269.593 309.771 270.011 310.112 270.33 310.551C270.652 310.991 270.843 311.504 270.903 312.091H269.25C269.159 311.682 268.951 311.33 268.625 311.034C268.303 310.739 267.871 310.591 267.33 310.591C266.856 310.591 266.441 310.716 266.085 310.966C265.733 311.212 265.458 311.564 265.261 312.023C265.064 312.477 264.966 313.015 264.966 313.636C264.966 314.273 265.063 314.822 265.256 315.284C265.449 315.746 265.722 316.104 266.074 316.358C266.43 316.612 266.848 316.739 267.33 316.739C267.652 316.739 267.943 316.68 268.205 316.562C268.47 316.441 268.691 316.269 268.869 316.045C269.051 315.822 269.178 315.553 269.25 315.239H270.903C270.843 315.803 270.659 316.307 270.352 316.75C270.045 317.193 269.634 317.542 269.119 317.795C268.608 318.049 268.008 318.176 267.318 318.176ZM276.794 309.273V310.636H272.027V309.273H276.794ZM273.305 307.182H275.004V315.438C275.004 315.767 275.054 316.015 275.152 316.182C275.25 316.345 275.377 316.456 275.533 316.517C275.692 316.574 275.864 316.602 276.05 316.602C276.186 316.602 276.305 316.593 276.408 316.574C276.51 316.555 276.589 316.54 276.646 316.528L276.953 317.932C276.855 317.97 276.714 318.008 276.533 318.045C276.351 318.087 276.124 318.11 275.851 318.114C275.404 318.121 274.987 318.042 274.601 317.875C274.214 317.708 273.902 317.451 273.663 317.102C273.425 316.754 273.305 316.316 273.305 315.79V307.182ZM282.341 318.176C281.481 318.176 280.741 317.992 280.119 317.625C279.502 317.254 279.025 316.733 278.688 316.062C278.354 315.388 278.188 314.598 278.188 313.693C278.188 312.799 278.354 312.011 278.688 311.33C279.025 310.648 279.494 310.116 280.097 309.733C280.703 309.35 281.411 309.159 282.222 309.159C282.714 309.159 283.191 309.241 283.653 309.403C284.116 309.566 284.53 309.822 284.898 310.17C285.265 310.519 285.555 310.972 285.767 311.528C285.979 312.081 286.085 312.754 286.085 313.545V314.148H279.148V312.875H284.42C284.42 312.428 284.33 312.032 284.148 311.688C283.966 311.339 283.71 311.064 283.381 310.864C283.055 310.663 282.672 310.562 282.233 310.562C281.756 310.562 281.339 310.68 280.983 310.915C280.631 311.146 280.358 311.449 280.165 311.824C279.975 312.195 279.881 312.598 279.881 313.034V314.028C279.881 314.612 279.983 315.108 280.188 315.517C280.396 315.926 280.686 316.239 281.057 316.455C281.428 316.667 281.862 316.773 282.358 316.773C282.68 316.773 282.973 316.727 283.239 316.636C283.504 316.542 283.733 316.402 283.926 316.216C284.119 316.03 284.267 315.801 284.369 315.528L285.977 315.818C285.848 316.292 285.617 316.706 285.284 317.062C284.955 317.415 284.54 317.689 284.04 317.886C283.544 318.08 282.977 318.176 282.341 318.176ZM292.044 309.273V310.636H287.277V309.273H292.044ZM288.555 307.182H290.254V315.438C290.254 315.767 290.304 316.015 290.402 316.182C290.5 316.345 290.627 316.456 290.783 316.517C290.942 316.574 291.114 316.602 291.3 316.602C291.436 316.602 291.555 316.593 291.658 316.574C291.76 316.555 291.839 316.54 291.896 316.528L292.203 317.932C292.105 317.97 291.964 318.008 291.783 318.045C291.601 318.087 291.374 318.11 291.101 318.114C290.654 318.121 290.237 318.042 289.851 317.875C289.464 317.708 289.152 317.451 288.913 317.102C288.675 316.754 288.555 316.316 288.555 315.79V307.182ZM299.452 314.381V309.273H301.156V318H299.486V316.489H299.395C299.194 316.955 298.872 317.343 298.429 317.653C297.99 317.96 297.442 318.114 296.787 318.114C296.226 318.114 295.73 317.991 295.298 317.744C294.87 317.494 294.533 317.125 294.287 316.636C294.045 316.148 293.923 315.544 293.923 314.824V309.273H295.622V314.619C295.622 315.214 295.787 315.687 296.116 316.04C296.446 316.392 296.874 316.568 297.401 316.568C297.719 316.568 298.035 316.489 298.349 316.33C298.668 316.17 298.931 315.93 299.139 315.608C299.351 315.286 299.455 314.877 299.452 314.381ZM303.439 318V309.273H305.081V310.659H305.172C305.331 310.189 305.611 309.82 306.013 309.551C306.418 309.278 306.876 309.142 307.388 309.142C307.494 309.142 307.619 309.146 307.763 309.153C307.911 309.161 308.026 309.17 308.109 309.182V310.807C308.041 310.788 307.92 310.767 307.746 310.744C307.571 310.718 307.397 310.705 307.223 310.705C306.821 310.705 306.464 310.79 306.149 310.96C305.839 311.127 305.592 311.36 305.411 311.659C305.229 311.955 305.138 312.292 305.138 312.67V318H303.439ZM316.354 318.193C315.801 318.193 315.301 318.091 314.854 317.886C314.407 317.678 314.053 317.377 313.791 316.983C313.534 316.589 313.405 316.106 313.405 315.534C313.405 315.042 313.5 314.636 313.689 314.318C313.878 314 314.134 313.748 314.456 313.562C314.778 313.377 315.138 313.237 315.536 313.142C315.933 313.047 316.339 312.975 316.751 312.926C317.274 312.866 317.698 312.816 318.024 312.778C318.35 312.737 318.587 312.67 318.734 312.58C318.882 312.489 318.956 312.341 318.956 312.136V312.097C318.956 311.6 318.816 311.216 318.536 310.943C318.259 310.67 317.846 310.534 317.297 310.534C316.725 310.534 316.274 310.661 315.945 310.915C315.619 311.165 315.393 311.443 315.268 311.75L313.672 311.386C313.861 310.856 314.138 310.428 314.501 310.102C314.869 309.773 315.291 309.534 315.768 309.386C316.246 309.235 316.748 309.159 317.274 309.159C317.623 309.159 317.992 309.201 318.382 309.284C318.776 309.364 319.143 309.511 319.484 309.727C319.829 309.943 320.111 310.252 320.331 310.653C320.551 311.051 320.661 311.568 320.661 312.205V318H319.001V316.807H318.933C318.823 317.027 318.659 317.242 318.439 317.455C318.219 317.667 317.937 317.843 317.592 317.983C317.248 318.123 316.835 318.193 316.354 318.193ZM316.723 316.83C317.193 316.83 317.594 316.737 317.928 316.551C318.265 316.366 318.52 316.123 318.695 315.824C318.873 315.521 318.962 315.197 318.962 314.852V313.727C318.901 313.788 318.784 313.845 318.609 313.898C318.439 313.947 318.244 313.991 318.024 314.028C317.804 314.062 317.59 314.095 317.382 314.125C317.174 314.152 317 314.174 316.859 314.193C316.53 314.235 316.229 314.305 315.956 314.403C315.687 314.502 315.471 314.644 315.308 314.83C315.149 315.011 315.07 315.254 315.07 315.557C315.07 315.977 315.225 316.295 315.536 316.511C315.846 316.723 316.242 316.83 316.723 316.83ZM326.19 318.17C325.486 318.17 324.857 317.991 324.304 317.631C323.755 317.267 323.323 316.75 323.009 316.08C322.698 315.405 322.543 314.597 322.543 313.653C322.543 312.71 322.7 311.903 323.014 311.233C323.332 310.562 323.768 310.049 324.321 309.693C324.874 309.337 325.501 309.159 326.202 309.159C326.743 309.159 327.179 309.25 327.509 309.432C327.842 309.61 328.099 309.818 328.281 310.057C328.467 310.295 328.611 310.506 328.713 310.688H328.815V306.364H330.514V318H328.855V316.642H328.713C328.611 316.828 328.463 317.04 328.27 317.278C328.08 317.517 327.819 317.725 327.486 317.903C327.152 318.081 326.721 318.17 326.19 318.17ZM326.565 316.722C327.054 316.722 327.467 316.593 327.804 316.335C328.145 316.074 328.402 315.712 328.577 315.25C328.755 314.788 328.844 314.25 328.844 313.636C328.844 313.03 328.757 312.5 328.582 312.045C328.408 311.591 328.152 311.237 327.815 310.983C327.478 310.729 327.062 310.602 326.565 310.602C326.054 310.602 325.628 310.735 325.287 311C324.946 311.265 324.688 311.627 324.514 312.085C324.344 312.544 324.259 313.061 324.259 313.636C324.259 314.22 324.346 314.744 324.52 315.21C324.694 315.676 324.952 316.045 325.293 316.318C325.637 316.587 326.062 316.722 326.565 316.722ZM332.939 318V309.273H334.638V318H332.939ZM333.797 307.926C333.501 307.926 333.248 307.828 333.036 307.631C332.827 307.43 332.723 307.191 332.723 306.915C332.723 306.634 332.827 306.396 333.036 306.199C333.248 305.998 333.501 305.898 333.797 305.898C334.092 305.898 334.344 305.998 334.553 306.199C334.765 306.396 334.871 306.634 334.871 306.915C334.871 307.191 334.765 307.43 334.553 307.631C334.344 307.828 334.092 307.926 333.797 307.926ZM336.923 321.273V309.273H338.582V310.688H338.724C338.823 310.506 338.965 310.295 339.151 310.057C339.336 309.818 339.594 309.61 339.923 309.432C340.253 309.25 340.688 309.159 341.23 309.159C341.935 309.159 342.563 309.337 343.116 309.693C343.67 310.049 344.103 310.562 344.418 311.233C344.736 311.903 344.895 312.71 344.895 313.653C344.895 314.597 344.738 315.405 344.423 316.08C344.109 316.75 343.677 317.267 343.128 317.631C342.579 317.991 341.952 318.17 341.247 318.17C340.717 318.17 340.283 318.081 339.946 317.903C339.613 317.725 339.351 317.517 339.162 317.278C338.973 317.04 338.827 316.828 338.724 316.642H338.622V321.273H336.923ZM338.588 313.636C338.588 314.25 338.677 314.788 338.855 315.25C339.033 315.712 339.291 316.074 339.628 316.335C339.965 316.593 340.378 316.722 340.866 316.722C341.374 316.722 341.798 316.587 342.139 316.318C342.48 316.045 342.738 315.676 342.912 315.21C343.09 314.744 343.179 314.22 343.179 313.636C343.179 313.061 343.092 312.544 342.918 312.085C342.747 311.627 342.49 311.265 342.145 311C341.804 310.735 341.378 310.602 340.866 310.602C340.374 310.602 339.957 310.729 339.616 310.983C339.279 311.237 339.024 311.591 338.849 312.045C338.675 312.5 338.588 313.03 338.588 313.636ZM346.798 318V309.273H348.497V318H346.798ZM347.656 307.926C347.361 307.926 347.107 307.828 346.895 307.631C346.687 307.43 346.582 307.191 346.582 306.915C346.582 306.634 346.687 306.396 346.895 306.199C347.107 305.998 347.361 305.898 347.656 305.898C347.952 305.898 348.204 305.998 348.412 306.199C348.624 306.396 348.73 306.634 348.73 306.915C348.73 307.191 348.624 307.43 348.412 307.631C348.204 307.828 347.952 307.926 347.656 307.926ZM357.322 311.403L355.783 311.676C355.718 311.479 355.616 311.292 355.476 311.114C355.339 310.936 355.154 310.79 354.919 310.676C354.684 310.562 354.391 310.506 354.038 310.506C353.557 310.506 353.156 310.614 352.834 310.83C352.512 311.042 352.351 311.316 352.351 311.653C352.351 311.945 352.459 312.18 352.675 312.358C352.891 312.536 353.239 312.682 353.72 312.795L355.107 313.114C355.91 313.299 356.508 313.585 356.902 313.972C357.296 314.358 357.493 314.86 357.493 315.477C357.493 316 357.341 316.466 357.038 316.875C356.739 317.28 356.321 317.598 355.783 317.83C355.249 318.061 354.629 318.176 353.925 318.176C352.947 318.176 352.15 317.968 351.533 317.551C350.915 317.131 350.536 316.534 350.396 315.761L352.038 315.511C352.141 315.939 352.351 316.263 352.669 316.483C352.987 316.699 353.402 316.807 353.913 316.807C354.47 316.807 354.915 316.691 355.249 316.46C355.582 316.225 355.749 315.939 355.749 315.602C355.749 315.33 355.646 315.1 355.442 314.915C355.241 314.729 354.932 314.589 354.516 314.494L353.038 314.17C352.224 313.985 351.622 313.689 351.232 313.284C350.845 312.879 350.652 312.366 350.652 311.744C350.652 311.229 350.796 310.778 351.084 310.392C351.372 310.006 351.769 309.705 352.277 309.489C352.785 309.269 353.366 309.159 354.021 309.159C354.964 309.159 355.707 309.364 356.249 309.773C356.79 310.178 357.148 310.722 357.322 311.403ZM363.037 318.176C362.192 318.176 361.465 317.985 360.855 317.602C360.249 317.216 359.783 316.684 359.457 316.006C359.132 315.328 358.969 314.551 358.969 313.676C358.969 312.79 359.135 312.008 359.469 311.33C359.802 310.648 360.272 310.116 360.878 309.733C361.484 309.35 362.198 309.159 363.02 309.159C363.683 309.159 364.274 309.282 364.793 309.528C365.312 309.771 365.73 310.112 366.048 310.551C366.37 310.991 366.562 311.504 366.622 312.091H364.969C364.878 311.682 364.67 311.33 364.344 311.034C364.022 310.739 363.59 310.591 363.048 310.591C362.575 310.591 362.16 310.716 361.804 310.966C361.452 311.212 361.177 311.564 360.98 312.023C360.783 312.477 360.685 313.015 360.685 313.636C360.685 314.273 360.781 314.822 360.974 315.284C361.168 315.746 361.44 316.104 361.793 316.358C362.149 316.612 362.567 316.739 363.048 316.739C363.37 316.739 363.662 316.68 363.923 316.562C364.188 316.441 364.41 316.269 364.588 316.045C364.77 315.822 364.897 315.553 364.969 315.239H366.622C366.562 315.803 366.378 316.307 366.071 316.75C365.764 317.193 365.353 317.542 364.838 317.795C364.327 318.049 363.726 318.176 363.037 318.176ZM368.439 318V309.273H370.138V318H368.439ZM369.297 307.926C369.001 307.926 368.748 307.828 368.536 307.631C368.327 307.43 368.223 307.191 368.223 306.915C368.223 306.634 368.327 306.396 368.536 306.199C368.748 305.998 369.001 305.898 369.297 305.898C369.592 305.898 369.844 305.998 370.053 306.199C370.265 306.396 370.371 306.634 370.371 306.915C370.371 307.191 370.265 307.43 370.053 307.631C369.844 307.828 369.592 307.926 369.297 307.926ZM374.122 312.818V318H372.423V309.273H374.054V310.693H374.162C374.363 310.231 374.677 309.86 375.105 309.58C375.537 309.299 376.08 309.159 376.736 309.159C377.33 309.159 377.851 309.284 378.298 309.534C378.745 309.78 379.092 310.148 379.338 310.636C379.584 311.125 379.707 311.729 379.707 312.449V318H378.009V312.653C378.009 312.021 377.844 311.527 377.514 311.17C377.185 310.811 376.732 310.631 376.156 310.631C375.762 310.631 375.412 310.716 375.105 310.886C374.802 311.057 374.562 311.307 374.384 311.636C374.209 311.962 374.122 312.356 374.122 312.818ZM385.645 321.455C384.952 321.455 384.355 321.364 383.855 321.182C383.359 321 382.954 320.759 382.639 320.46C382.325 320.161 382.09 319.833 381.935 319.477L383.395 318.875C383.497 319.042 383.634 319.218 383.804 319.403C383.978 319.593 384.213 319.754 384.509 319.886C384.808 320.019 385.192 320.085 385.662 320.085C386.306 320.085 386.838 319.928 387.259 319.614C387.679 319.303 387.889 318.807 387.889 318.125V316.409H387.781C387.679 316.595 387.531 316.801 387.338 317.028C387.149 317.256 386.887 317.453 386.554 317.619C386.221 317.786 385.787 317.869 385.253 317.869C384.563 317.869 383.942 317.708 383.389 317.386C382.84 317.061 382.404 316.581 382.082 315.949C381.764 315.312 381.605 314.53 381.605 313.602C381.605 312.674 381.762 311.879 382.077 311.216C382.395 310.553 382.83 310.045 383.384 309.693C383.937 309.337 384.563 309.159 385.264 309.159C385.806 309.159 386.243 309.25 386.577 309.432C386.91 309.61 387.17 309.818 387.355 310.057C387.545 310.295 387.69 310.506 387.793 310.688H387.918V309.273H389.582V318.193C389.582 318.943 389.408 319.559 389.06 320.04C388.711 320.521 388.24 320.877 387.645 321.108C387.054 321.339 386.387 321.455 385.645 321.455ZM385.628 316.46C386.116 316.46 386.529 316.347 386.866 316.119C387.207 315.888 387.465 315.559 387.639 315.131C387.817 314.699 387.906 314.182 387.906 313.58C387.906 312.992 387.819 312.475 387.645 312.028C387.471 311.581 387.215 311.233 386.878 310.983C386.541 310.729 386.124 310.602 385.628 310.602C385.116 310.602 384.69 310.735 384.349 311C384.009 311.261 383.751 311.617 383.577 312.068C383.406 312.519 383.321 313.023 383.321 313.58C383.321 314.152 383.408 314.653 383.582 315.085C383.757 315.517 384.014 315.854 384.355 316.097C384.7 316.339 385.124 316.46 385.628 316.46ZM4.90341 342.176C4.04356 342.176 3.30303 341.992 2.68182 341.625C2.06439 341.254 1.58712 340.733 1.25 340.062C0.916667 339.388 0.75 338.598 0.75 337.693C0.75 336.799 0.916667 336.011 1.25 335.33C1.58712 334.648 2.05682 334.116 2.65909 333.733C3.26515 333.35 3.97348 333.159 4.78409 333.159C5.27652 333.159 5.75379 333.241 6.21591 333.403C6.67803 333.566 7.0928 333.822 7.46023 334.17C7.82765 334.519 8.11742 334.972 8.32955 335.528C8.54167 336.081 8.64773 336.754 8.64773 337.545V338.148H1.71023V336.875H6.98295C6.98295 336.428 6.89205 336.032 6.71023 335.688C6.52841 335.339 6.27273 335.064 5.94318 334.864C5.61742 334.663 5.23485 334.562 4.79545 334.562C4.31818 334.562 3.90152 334.68 3.54545 334.915C3.19318 335.146 2.92045 335.449 2.72727 335.824C2.53788 336.195 2.44318 336.598 2.44318 337.034V338.028C2.44318 338.612 2.54545 339.108 2.75 339.517C2.95833 339.926 3.24811 340.239 3.61932 340.455C3.99053 340.667 4.42424 340.773 4.92045 340.773C5.24242 340.773 5.53599 340.727 5.80114 340.636C6.06629 340.542 6.29545 340.402 6.48864 340.216C6.68182 340.03 6.82955 339.801 6.93182 339.528L8.53977 339.818C8.41098 340.292 8.17992 340.706 7.84659 341.062C7.51705 341.415 7.10227 341.689 6.60227 341.886C6.10606 342.08 5.53977 342.176 4.90341 342.176ZM12.2315 330.364V342H10.5327V330.364H12.2315ZM14.517 342V333.273H16.2159V342H14.517ZM15.375 331.926C15.0795 331.926 14.8258 331.828 14.6136 331.631C14.4053 331.43 14.3011 331.191 14.3011 330.915C14.3011 330.634 14.4053 330.396 14.6136 330.199C14.8258 329.998 15.0795 329.898 15.375 329.898C15.6705 329.898 15.9223 329.998 16.1307 330.199C16.3428 330.396 16.4489 330.634 16.4489 330.915C16.4489 331.191 16.3428 331.43 16.1307 331.631C15.9223 331.828 15.6705 331.926 15.375 331.926ZM22.5753 333.273V334.636H17.8082V333.273H22.5753ZM19.0866 331.182H20.7855V339.438C20.7855 339.767 20.8348 340.015 20.9332 340.182C21.0317 340.345 21.1586 340.456 21.3139 340.517C21.473 340.574 21.6454 340.602 21.831 340.602C21.9673 340.602 22.0866 340.593 22.1889 340.574C22.2912 340.555 22.3707 340.54 22.4276 340.528L22.7344 341.932C22.6359 341.97 22.4957 342.008 22.3139 342.045C22.1321 342.087 21.9048 342.11 21.6321 342.114C21.1851 342.121 20.7685 342.042 20.3821 341.875C19.9957 341.708 19.6832 341.451 19.4446 341.102C19.206 340.754 19.0866 340.316 19.0866 339.79V331.182ZM25.5739 342.108C25.2633 342.108 24.9962 341.998 24.7727 341.778C24.5492 341.555 24.4375 341.286 24.4375 340.972C24.4375 340.661 24.5492 340.396 24.7727 340.176C24.9962 339.953 25.2633 339.841 25.5739 339.841C25.8845 339.841 26.1515 339.953 26.375 340.176C26.5985 340.396 26.7102 340.661 26.7102 340.972C26.7102 341.18 26.6572 341.371 26.5511 341.545C26.4489 341.716 26.3125 341.852 26.142 341.955C25.9716 342.057 25.7822 342.108 25.5739 342.108ZM33.169 342V330.364H37.3168C38.2221 330.364 38.9721 330.528 39.5668 330.858C40.1615 331.187 40.6065 331.638 40.902 332.21C41.1974 332.778 41.3452 333.419 41.3452 334.131C41.3452 334.847 41.1955 335.491 40.8963 336.062C40.6009 336.631 40.1539 337.081 39.5554 337.415C38.9607 337.744 38.2126 337.909 37.3111 337.909H34.4588V336.42H37.152C37.724 336.42 38.188 336.322 38.544 336.125C38.9001 335.924 39.1615 335.652 39.3281 335.307C39.4948 334.962 39.5781 334.57 39.5781 334.131C39.5781 333.691 39.4948 333.301 39.3281 332.96C39.1615 332.619 38.8982 332.352 38.5384 332.159C38.1823 331.966 37.7126 331.869 37.1293 331.869H34.9247V342H33.169ZM46.919 342.176C46.0592 342.176 45.3187 341.992 44.6974 341.625C44.08 341.254 43.6027 340.733 43.2656 340.062C42.9323 339.388 42.7656 338.598 42.7656 337.693C42.7656 336.799 42.9323 336.011 43.2656 335.33C43.6027 334.648 44.0724 334.116 44.6747 333.733C45.2808 333.35 45.9891 333.159 46.7997 333.159C47.2921 333.159 47.7694 333.241 48.2315 333.403C48.6937 333.566 49.1084 333.822 49.4759 334.17C49.8433 334.519 50.133 334.972 50.3452 335.528C50.5573 336.081 50.6634 336.754 50.6634 337.545V338.148H43.7259V336.875H48.9986C48.9986 336.428 48.9077 336.032 48.7259 335.688C48.544 335.339 48.2884 335.064 47.9588 334.864C47.633 334.663 47.2505 334.562 46.8111 334.562C46.3338 334.562 45.9171 334.68 45.5611 334.915C45.2088 335.146 44.9361 335.449 44.7429 335.824C44.5535 336.195 44.4588 336.598 44.4588 337.034V338.028C44.4588 338.612 44.5611 339.108 44.7656 339.517C44.974 339.926 45.2637 340.239 45.6349 340.455C46.0062 340.667 46.4399 340.773 46.9361 340.773C47.258 340.773 47.5516 340.727 47.8168 340.636C48.0819 340.542 48.3111 340.402 48.5043 340.216C48.6974 340.03 48.8452 339.801 48.9474 339.528L50.5554 339.818C50.4266 340.292 50.1955 340.706 49.8622 341.062C49.5327 341.415 49.1179 341.689 48.6179 341.886C48.1217 342.08 47.5554 342.176 46.919 342.176ZM54.2472 330.364V342H52.5483V330.364H54.2472ZM58.2315 330.364V342H56.5327V330.364H58.2315ZM64.2784 342.176C63.4186 342.176 62.678 341.992 62.0568 341.625C61.4394 341.254 60.9621 340.733 60.625 340.062C60.2917 339.388 60.125 338.598 60.125 337.693C60.125 336.799 60.2917 336.011 60.625 335.33C60.9621 334.648 61.4318 334.116 62.0341 333.733C62.6402 333.35 63.3485 333.159 64.1591 333.159C64.6515 333.159 65.1288 333.241 65.5909 333.403C66.053 333.566 66.4678 333.822 66.8352 334.17C67.2027 334.519 67.4924 334.972 67.7045 335.528C67.9167 336.081 68.0227 336.754 68.0227 337.545V338.148H61.0852V336.875H66.358C66.358 336.428 66.267 336.032 66.0852 335.688C65.9034 335.339 65.6477 335.064 65.3182 334.864C64.9924 334.663 64.6098 334.562 64.1705 334.562C63.6932 334.562 63.2765 334.68 62.9205 334.915C62.5682 335.146 62.2955 335.449 62.1023 335.824C61.9129 336.195 61.8182 336.598 61.8182 337.034V338.028C61.8182 338.612 61.9205 339.108 62.125 339.517C62.3333 339.926 62.6231 340.239 62.9943 340.455C63.3655 340.667 63.7992 340.773 64.2955 340.773C64.6174 340.773 64.911 340.727 65.1761 340.636C65.4413 340.542 65.6705 340.402 65.8636 340.216C66.0568 340.03 66.2045 339.801 66.3068 339.528L67.9148 339.818C67.786 340.292 67.5549 340.706 67.2216 341.062C66.892 341.415 66.4773 341.689 65.9773 341.886C65.4811 342.08 64.9148 342.176 64.2784 342.176ZM71.6065 336.818V342H69.9077V333.273H71.5384V334.693H71.6463C71.8471 334.231 72.1615 333.86 72.5895 333.58C73.0213 333.299 73.5649 333.159 74.2202 333.159C74.8149 333.159 75.3357 333.284 75.7827 333.534C76.2296 333.78 76.5762 334.148 76.8224 334.636C77.0687 335.125 77.1918 335.729 77.1918 336.449V342H75.4929V336.653C75.4929 336.021 75.3281 335.527 74.9986 335.17C74.669 334.811 74.2164 334.631 73.6406 334.631C73.2467 334.631 72.8963 334.716 72.5895 334.886C72.2865 335.057 72.0459 335.307 71.8679 335.636C71.6937 335.962 71.6065 336.356 71.6065 336.818ZM83.544 333.273V334.636H78.777V333.273H83.544ZM80.0554 331.182H81.7543V339.438C81.7543 339.767 81.8035 340.015 81.902 340.182C82.0005 340.345 82.1274 340.456 82.2827 340.517C82.4418 340.574 82.6141 340.602 82.7997 340.602C82.9361 340.602 83.0554 340.593 83.1577 340.574C83.2599 340.555 83.3395 340.54 83.3963 340.528L83.7031 341.932C83.6046 341.97 83.4645 342.008 83.2827 342.045C83.1009 342.087 82.8736 342.11 82.6009 342.114C82.1539 342.121 81.7372 342.042 81.3509 341.875C80.9645 341.708 80.652 341.451 80.4134 341.102C80.1747 340.754 80.0554 340.316 80.0554 339.79V331.182ZM89.0909 342.176C88.2311 342.176 87.4905 341.992 86.8693 341.625C86.2519 341.254 85.7746 340.733 85.4375 340.062C85.1042 339.388 84.9375 338.598 84.9375 337.693C84.9375 336.799 85.1042 336.011 85.4375 335.33C85.7746 334.648 86.2443 334.116 86.8466 333.733C87.4527 333.35 88.161 333.159 88.9716 333.159C89.464 333.159 89.9413 333.241 90.4034 333.403C90.8655 333.566 91.2803 333.822 91.6477 334.17C92.0152 334.519 92.3049 334.972 92.517 335.528C92.7292 336.081 92.8352 336.754 92.8352 337.545V338.148H85.8977V336.875H91.1705C91.1705 336.428 91.0795 336.032 90.8977 335.688C90.7159 335.339 90.4602 335.064 90.1307 334.864C89.8049 334.663 89.4223 334.562 88.983 334.562C88.5057 334.562 88.089 334.68 87.733 334.915C87.3807 335.146 87.108 335.449 86.9148 335.824C86.7254 336.195 86.6307 336.598 86.6307 337.034V338.028C86.6307 338.612 86.733 339.108 86.9375 339.517C87.1458 339.926 87.4356 340.239 87.8068 340.455C88.178 340.667 88.6117 340.773 89.108 340.773C89.4299 340.773 89.7235 340.727 89.9886 340.636C90.2538 340.542 90.483 340.402 90.6761 340.216C90.8693 340.03 91.017 339.801 91.1193 339.528L92.7273 339.818C92.5985 340.292 92.3674 340.706 92.0341 341.062C91.7045 341.415 91.2898 341.689 90.7898 341.886C90.2936 342.08 89.7273 342.176 89.0909 342.176ZM101.26 335.403L99.7202 335.676C99.6558 335.479 99.5535 335.292 99.4134 335.114C99.277 334.936 99.0914 334.79 98.8565 334.676C98.6217 334.562 98.3281 334.506 97.9759 334.506C97.4948 334.506 97.0933 334.614 96.7713 334.83C96.4493 335.042 96.2884 335.316 96.2884 335.653C96.2884 335.945 96.3963 336.18 96.6122 336.358C96.8281 336.536 97.1766 336.682 97.6577 336.795L99.044 337.114C99.8471 337.299 100.446 337.585 100.839 337.972C101.233 338.358 101.43 338.86 101.43 339.477C101.43 340 101.279 340.466 100.976 340.875C100.677 341.28 100.258 341.598 99.7202 341.83C99.1861 342.061 98.5668 342.176 97.8622 342.176C96.8849 342.176 96.0876 341.968 95.4702 341.551C94.8527 341.131 94.474 340.534 94.3338 339.761L95.9759 339.511C96.0781 339.939 96.2884 340.263 96.6065 340.483C96.9247 340.699 97.3395 340.807 97.8509 340.807C98.4077 340.807 98.8527 340.691 99.1861 340.46C99.5194 340.225 99.6861 339.939 99.6861 339.602C99.6861 339.33 99.5838 339.1 99.3793 338.915C99.1785 338.729 98.8698 338.589 98.4531 338.494L96.9759 338.17C96.1615 337.985 95.5592 337.689 95.169 337.284C94.7827 336.879 94.5895 336.366 94.5895 335.744C94.5895 335.229 94.7334 334.778 95.0213 334.392C95.3092 334.006 95.7069 333.705 96.2145 333.489C96.7221 333.269 97.3035 333.159 97.9588 333.159C98.902 333.159 99.6444 333.364 100.186 333.773C100.728 334.178 101.086 334.722 101.26 335.403ZM109.19 345.273V340.642H109.088C108.986 340.828 108.838 341.04 108.645 341.278C108.455 341.517 108.194 341.725 107.861 341.903C107.527 342.081 107.096 342.17 106.565 342.17C105.861 342.17 105.232 341.991 104.679 341.631C104.13 341.267 103.698 340.75 103.384 340.08C103.073 339.405 102.918 338.597 102.918 337.653C102.918 336.71 103.075 335.903 103.389 335.233C103.707 334.562 104.143 334.049 104.696 333.693C105.249 333.337 105.876 333.159 106.577 333.159C107.118 333.159 107.554 333.25 107.884 333.432C108.217 333.61 108.474 333.818 108.656 334.057C108.842 334.295 108.986 334.506 109.088 334.688H109.23V333.273H110.889V345.273H109.19ZM106.94 340.722C107.429 340.722 107.842 340.593 108.179 340.335C108.52 340.074 108.777 339.712 108.952 339.25C109.13 338.788 109.219 338.25 109.219 337.636C109.219 337.03 109.132 336.5 108.957 336.045C108.783 335.591 108.527 335.237 108.19 334.983C107.853 334.729 107.437 334.602 106.94 334.602C106.429 334.602 106.003 334.735 105.662 335C105.321 335.265 105.063 335.627 104.889 336.085C104.719 336.544 104.634 337.061 104.634 337.636C104.634 338.22 104.721 338.744 104.895 339.21C105.069 339.676 105.327 340.045 105.668 340.318C106.012 340.587 106.437 340.722 106.94 340.722ZM118.702 338.381V333.273H120.406V342H118.736V340.489H118.645C118.444 340.955 118.122 341.343 117.679 341.653C117.24 341.96 116.692 342.114 116.037 342.114C115.476 342.114 114.98 341.991 114.548 341.744C114.12 341.494 113.783 341.125 113.537 340.636C113.295 340.148 113.173 339.544 113.173 338.824V333.273H114.872V338.619C114.872 339.214 115.037 339.687 115.366 340.04C115.696 340.392 116.124 340.568 116.651 340.568C116.969 340.568 117.285 340.489 117.599 340.33C117.918 340.17 118.181 339.93 118.389 339.608C118.601 339.286 118.705 338.877 118.702 338.381ZM126.45 342.176C125.59 342.176 124.85 341.992 124.229 341.625C123.611 341.254 123.134 340.733 122.797 340.062C122.464 339.388 122.297 338.598 122.297 337.693C122.297 336.799 122.464 336.011 122.797 335.33C123.134 334.648 123.604 334.116 124.206 333.733C124.812 333.35 125.52 333.159 126.331 333.159C126.823 333.159 127.301 333.241 127.763 333.403C128.225 333.566 128.64 333.822 129.007 334.17C129.375 334.519 129.664 334.972 129.876 335.528C130.089 336.081 130.195 336.754 130.195 337.545V338.148H123.257V336.875H128.53C128.53 336.428 128.439 336.032 128.257 335.688C128.075 335.339 127.82 335.064 127.49 334.864C127.164 334.663 126.782 334.562 126.342 334.562C125.865 334.562 125.448 334.68 125.092 334.915C124.74 335.146 124.467 335.449 124.274 335.824C124.085 336.195 123.99 336.598 123.99 337.034V338.028C123.99 338.612 124.092 339.108 124.297 339.517C124.505 339.926 124.795 340.239 125.166 340.455C125.537 340.667 125.971 340.773 126.467 340.773C126.789 340.773 127.083 340.727 127.348 340.636C127.613 340.542 127.842 340.402 128.036 340.216C128.229 340.03 128.376 339.801 128.479 339.528L130.087 339.818C129.958 340.292 129.727 340.706 129.393 341.062C129.064 341.415 128.649 341.689 128.149 341.886C127.653 342.08 127.087 342.176 126.45 342.176ZM136.314 345.273V333.273H137.973V334.688H138.115C138.214 334.506 138.356 334.295 138.541 334.057C138.727 333.818 138.984 333.61 139.314 333.432C139.643 333.25 140.079 333.159 140.621 333.159C141.325 333.159 141.954 333.337 142.507 333.693C143.06 334.049 143.494 334.562 143.808 335.233C144.126 335.903 144.286 336.71 144.286 337.653C144.286 338.597 144.128 339.405 143.814 340.08C143.5 340.75 143.068 341.267 142.518 341.631C141.969 341.991 141.342 342.17 140.638 342.17C140.107 342.17 139.674 342.081 139.337 341.903C139.003 341.725 138.742 341.517 138.553 341.278C138.363 341.04 138.217 340.828 138.115 340.642H138.013V345.273H136.314ZM137.979 337.636C137.979 338.25 138.068 338.788 138.246 339.25C138.424 339.712 138.681 340.074 139.018 340.335C139.356 340.593 139.768 340.722 140.257 340.722C140.765 340.722 141.189 340.587 141.53 340.318C141.871 340.045 142.128 339.676 142.303 339.21C142.481 338.744 142.57 338.22 142.57 337.636C142.57 337.061 142.482 336.544 142.308 336.085C142.138 335.627 141.88 335.265 141.536 335C141.195 334.735 140.768 334.602 140.257 334.602C139.765 334.602 139.348 334.729 139.007 334.983C138.67 335.237 138.414 335.591 138.24 336.045C138.066 336.5 137.979 337.03 137.979 337.636ZM148.729 342.193C148.176 342.193 147.676 342.091 147.229 341.886C146.782 341.678 146.428 341.377 146.166 340.983C145.909 340.589 145.78 340.106 145.78 339.534C145.78 339.042 145.875 338.636 146.064 338.318C146.253 338 146.509 337.748 146.831 337.562C147.153 337.377 147.513 337.237 147.911 337.142C148.308 337.047 148.714 336.975 149.126 336.926C149.649 336.866 150.073 336.816 150.399 336.778C150.725 336.737 150.962 336.67 151.109 336.58C151.257 336.489 151.331 336.341 151.331 336.136V336.097C151.331 335.6 151.191 335.216 150.911 334.943C150.634 334.67 150.221 334.534 149.672 334.534C149.1 334.534 148.649 334.661 148.32 334.915C147.994 335.165 147.768 335.443 147.643 335.75L146.047 335.386C146.236 334.856 146.513 334.428 146.876 334.102C147.244 333.773 147.666 333.534 148.143 333.386C148.621 333.235 149.123 333.159 149.649 333.159C149.998 333.159 150.367 333.201 150.757 333.284C151.151 333.364 151.518 333.511 151.859 333.727C152.204 333.943 152.486 334.252 152.706 334.653C152.926 335.051 153.036 335.568 153.036 336.205V342H151.376V340.807H151.308C151.198 341.027 151.034 341.242 150.814 341.455C150.594 341.667 150.312 341.843 149.967 341.983C149.623 342.123 149.21 342.193 148.729 342.193ZM149.098 340.83C149.568 340.83 149.969 340.737 150.303 340.551C150.64 340.366 150.895 340.123 151.07 339.824C151.248 339.521 151.337 339.197 151.337 338.852V337.727C151.276 337.788 151.159 337.845 150.984 337.898C150.814 337.947 150.619 337.991 150.399 338.028C150.179 338.062 149.965 338.095 149.757 338.125C149.549 338.152 149.375 338.174 149.234 338.193C148.905 338.235 148.604 338.305 148.331 338.403C148.062 338.502 147.846 338.644 147.683 338.83C147.524 339.011 147.445 339.254 147.445 339.557C147.445 339.977 147.6 340.295 147.911 340.511C148.221 340.723 148.617 340.83 149.098 340.83ZM155.298 342V333.273H156.94V334.659H157.031C157.19 334.189 157.471 333.82 157.872 333.551C158.277 333.278 158.736 333.142 159.247 333.142C159.353 333.142 159.478 333.146 159.622 333.153C159.77 333.161 159.885 333.17 159.969 333.182V334.807C159.901 334.788 159.779 334.767 159.605 334.744C159.431 334.718 159.257 334.705 159.082 334.705C158.681 334.705 158.323 334.79 158.009 334.96C157.698 335.127 157.452 335.36 157.27 335.659C157.088 335.955 156.997 336.292 156.997 336.67V342H155.298ZM166.028 333.273V334.636H161.261V333.273H166.028ZM162.54 331.182H164.239V339.438C164.239 339.767 164.288 340.015 164.386 340.182C164.485 340.345 164.612 340.456 164.767 340.517C164.926 340.574 165.098 340.602 165.284 340.602C165.42 340.602 165.54 340.593 165.642 340.574C165.744 340.555 165.824 340.54 165.881 340.528L166.188 341.932C166.089 341.97 165.949 342.008 165.767 342.045C165.585 342.087 165.358 342.11 165.085 342.114C164.638 342.121 164.222 342.042 163.835 341.875C163.449 341.708 163.136 341.451 162.898 341.102C162.659 340.754 162.54 340.316 162.54 339.79V331.182ZM173.436 338.381V333.273H175.141V342H173.47V340.489H173.379C173.179 340.955 172.857 341.343 172.413 341.653C171.974 341.96 171.427 342.114 170.771 342.114C170.211 342.114 169.714 341.991 169.283 341.744C168.855 341.494 168.518 341.125 168.271 340.636C168.029 340.148 167.908 339.544 167.908 338.824V333.273H169.607V338.619C169.607 339.214 169.771 339.687 170.101 340.04C170.43 340.392 170.858 340.568 171.385 340.568C171.703 340.568 172.019 340.489 172.334 340.33C172.652 340.17 172.915 339.93 173.124 339.608C173.336 339.286 173.44 338.877 173.436 338.381ZM177.423 342V333.273H179.065V334.659H179.156C179.315 334.189 179.596 333.82 179.997 333.551C180.402 333.278 180.861 333.142 181.372 333.142C181.478 333.142 181.603 333.146 181.747 333.153C181.895 333.161 182.01 333.17 182.094 333.182V334.807C182.026 334.788 181.904 334.767 181.73 334.744C181.556 334.718 181.382 334.705 181.207 334.705C180.806 334.705 180.448 334.79 180.134 334.96C179.823 335.127 179.577 335.36 179.395 335.659C179.213 335.955 179.122 336.292 179.122 336.67V342H177.423ZM183.564 342V333.273H185.263V342H183.564ZM184.422 331.926C184.126 331.926 183.873 331.828 183.661 331.631C183.452 331.43 183.348 331.191 183.348 330.915C183.348 330.634 183.452 330.396 183.661 330.199C183.873 329.998 184.126 329.898 184.422 329.898C184.717 329.898 184.969 329.998 185.178 330.199C185.39 330.396 185.496 330.634 185.496 330.915C185.496 331.191 185.39 331.43 185.178 331.631C184.969 331.828 184.717 331.926 184.422 331.926ZM191.31 342.176C190.45 342.176 189.709 341.992 189.088 341.625C188.471 341.254 187.993 340.733 187.656 340.062C187.323 339.388 187.156 338.598 187.156 337.693C187.156 336.799 187.323 336.011 187.656 335.33C187.993 334.648 188.463 334.116 189.065 333.733C189.671 333.35 190.38 333.159 191.19 333.159C191.683 333.159 192.16 333.241 192.622 333.403C193.084 333.566 193.499 333.822 193.866 334.17C194.234 334.519 194.524 334.972 194.736 335.528C194.948 336.081 195.054 336.754 195.054 337.545V338.148H188.116V336.875H193.389C193.389 336.428 193.298 336.032 193.116 335.688C192.935 335.339 192.679 335.064 192.349 334.864C192.024 334.663 191.641 334.562 191.202 334.562C190.724 334.562 190.308 334.68 189.952 334.915C189.599 335.146 189.327 335.449 189.134 335.824C188.944 336.195 188.849 336.598 188.849 337.034V338.028C188.849 338.612 188.952 339.108 189.156 339.517C189.365 339.926 189.654 340.239 190.026 340.455C190.397 340.667 190.83 340.773 191.327 340.773C191.649 340.773 191.942 340.727 192.207 340.636C192.473 340.542 192.702 340.402 192.895 340.216C193.088 340.03 193.236 339.801 193.338 339.528L194.946 339.818C194.817 340.292 194.586 340.706 194.253 341.062C193.923 341.415 193.509 341.689 193.009 341.886C192.512 342.08 191.946 342.176 191.31 342.176ZM198.638 336.818V342H196.939V333.273H198.57V334.693H198.678C198.878 334.231 199.193 333.86 199.621 333.58C200.053 333.299 200.596 333.159 201.251 333.159C201.846 333.159 202.367 333.284 202.814 333.534C203.261 333.78 203.607 334.148 203.854 334.636C204.1 335.125 204.223 335.729 204.223 336.449V342H202.524V336.653C202.524 336.021 202.359 335.527 202.03 335.17C201.7 334.811 201.248 334.631 200.672 334.631C200.278 334.631 199.928 334.716 199.621 334.886C199.318 335.057 199.077 335.307 198.899 335.636C198.725 335.962 198.638 336.356 198.638 336.818ZM210.575 333.273V334.636H205.808V333.273H210.575ZM207.087 331.182H208.786V339.438C208.786 339.767 208.835 340.015 208.933 340.182C209.032 340.345 209.159 340.456 209.314 340.517C209.473 340.574 209.645 340.602 209.831 340.602C209.967 340.602 210.087 340.593 210.189 340.574C210.291 340.555 210.371 340.54 210.428 340.528L210.734 341.932C210.636 341.97 210.496 342.008 210.314 342.045C210.132 342.087 209.905 342.11 209.632 342.114C209.185 342.121 208.768 342.042 208.382 341.875C207.996 341.708 207.683 341.451 207.445 341.102C207.206 340.754 207.087 340.316 207.087 339.79V331.182ZM218.388 336.818V342H216.689V333.273H218.32V334.693H218.428C218.628 334.231 218.943 333.86 219.371 333.58C219.803 333.299 220.346 333.159 221.001 333.159C221.596 333.159 222.117 333.284 222.564 333.534C223.011 333.78 223.357 334.148 223.604 334.636C223.85 335.125 223.973 335.729 223.973 336.449V342H222.274V336.653C222.274 336.021 222.109 335.527 221.78 335.17C221.45 334.811 220.998 334.631 220.422 334.631C220.028 334.631 219.678 334.716 219.371 334.886C219.068 335.057 218.827 335.307 218.649 335.636C218.475 335.962 218.388 336.356 218.388 336.818ZM229.928 342.176C229.109 342.176 228.395 341.989 227.786 341.614C227.176 341.239 226.702 340.714 226.365 340.04C226.028 339.366 225.859 338.578 225.859 337.676C225.859 336.771 226.028 335.979 226.365 335.301C226.702 334.623 227.176 334.097 227.786 333.722C228.395 333.347 229.109 333.159 229.928 333.159C230.746 333.159 231.46 333.347 232.07 333.722C232.679 334.097 233.153 334.623 233.49 335.301C233.827 335.979 233.996 336.771 233.996 337.676C233.996 338.578 233.827 339.366 233.49 340.04C233.153 340.714 232.679 341.239 232.07 341.614C231.46 341.989 230.746 342.176 229.928 342.176ZM229.933 340.75C230.464 340.75 230.903 340.61 231.251 340.33C231.6 340.049 231.857 339.676 232.024 339.21C232.195 338.744 232.28 338.231 232.28 337.67C232.28 337.114 232.195 336.602 232.024 336.136C231.857 335.667 231.6 335.29 231.251 335.006C230.903 334.722 230.464 334.58 229.933 334.58C229.399 334.58 228.956 334.722 228.604 335.006C228.255 335.29 227.996 335.667 227.825 336.136C227.659 336.602 227.575 337.114 227.575 337.67C227.575 338.231 227.659 338.744 227.825 339.21C227.996 339.676 228.255 340.049 228.604 340.33C228.956 340.61 229.399 340.75 229.933 340.75ZM237.591 336.818V342H235.892V333.273H237.523V334.693H237.631C237.831 334.231 238.146 333.86 238.574 333.58C239.006 333.299 239.549 333.159 240.205 333.159C240.799 333.159 241.32 333.284 241.767 333.534C242.214 333.78 242.561 334.148 242.807 334.636C243.053 335.125 243.176 335.729 243.176 336.449V342H241.477V336.653C241.477 336.021 241.313 335.527 240.983 335.17C240.653 334.811 240.201 334.631 239.625 334.631C239.231 334.631 238.881 334.716 238.574 334.886C238.271 335.057 238.03 335.307 237.852 335.636C237.678 335.962 237.591 336.356 237.591 336.818ZM257.155 333.273L253.99 342H252.172L249.001 333.273H250.825L253.036 339.989H253.126L255.331 333.273H257.155ZM261.041 342.193C260.488 342.193 259.988 342.091 259.541 341.886C259.094 341.678 258.74 341.377 258.479 340.983C258.221 340.589 258.092 340.106 258.092 339.534C258.092 339.042 258.187 338.636 258.376 338.318C258.566 338 258.821 337.748 259.143 337.562C259.465 337.377 259.825 337.237 260.223 337.142C260.621 337.047 261.026 336.975 261.439 336.926C261.962 336.866 262.386 336.816 262.712 336.778C263.037 336.737 263.274 336.67 263.422 336.58C263.57 336.489 263.643 336.341 263.643 336.136V336.097C263.643 335.6 263.503 335.216 263.223 334.943C262.946 334.67 262.534 334.534 261.984 334.534C261.412 334.534 260.962 334.661 260.632 334.915C260.306 335.165 260.081 335.443 259.956 335.75L258.359 335.386C258.549 334.856 258.825 334.428 259.189 334.102C259.556 333.773 259.979 333.534 260.456 333.386C260.933 333.235 261.435 333.159 261.962 333.159C262.31 333.159 262.679 333.201 263.07 333.284C263.464 333.364 263.831 333.511 264.172 333.727C264.517 333.943 264.799 334.252 265.018 334.653C265.238 335.051 265.348 335.568 265.348 336.205V342H263.689V340.807H263.621C263.511 341.027 263.346 341.242 263.126 341.455C262.907 341.667 262.625 341.843 262.28 341.983C261.935 342.123 261.522 342.193 261.041 342.193ZM261.411 340.83C261.88 340.83 262.282 340.737 262.615 340.551C262.952 340.366 263.208 340.123 263.382 339.824C263.56 339.521 263.649 339.197 263.649 338.852V337.727C263.589 337.788 263.471 337.845 263.297 337.898C263.126 337.947 262.931 337.991 262.712 338.028C262.492 338.062 262.278 338.095 262.07 338.125C261.861 338.152 261.687 338.174 261.547 338.193C261.217 338.235 260.916 338.305 260.643 338.403C260.375 338.502 260.159 338.644 259.996 338.83C259.837 339.011 259.757 339.254 259.757 339.557C259.757 339.977 259.912 340.295 260.223 340.511C260.534 340.723 260.929 340.83 261.411 340.83ZM267.611 342V333.273H269.253V334.659H269.344C269.503 334.189 269.783 333.82 270.185 333.551C270.59 333.278 271.048 333.142 271.56 333.142C271.666 333.142 271.791 333.146 271.935 333.153C272.082 333.161 272.198 333.17 272.281 333.182V334.807C272.213 334.788 272.092 334.767 271.918 334.744C271.743 334.718 271.569 334.705 271.395 334.705C270.993 334.705 270.635 334.79 270.321 334.96C270.01 335.127 269.764 335.36 269.582 335.659C269.401 335.955 269.31 336.292 269.31 336.67V342H267.611ZM273.751 342V333.273H275.45V342H273.751ZM274.609 331.926C274.314 331.926 274.06 331.828 273.848 331.631C273.64 331.43 273.536 331.191 273.536 330.915C273.536 330.634 273.64 330.396 273.848 330.199C274.06 329.998 274.314 329.898 274.609 329.898C274.905 329.898 275.157 329.998 275.365 330.199C275.577 330.396 275.683 330.634 275.683 330.915C275.683 331.191 275.577 331.43 275.365 331.631C275.157 331.828 274.905 331.926 274.609 331.926ZM283.264 338.381V333.273H284.969V342H283.298V340.489H283.207C283.007 340.955 282.685 341.343 282.241 341.653C281.802 341.96 281.255 342.114 280.599 342.114C280.039 342.114 279.543 341.991 279.111 341.744C278.683 341.494 278.346 341.125 278.099 340.636C277.857 340.148 277.736 339.544 277.736 338.824V333.273H279.435V338.619C279.435 339.214 279.599 339.687 279.929 340.04C280.259 340.392 280.687 340.568 281.213 340.568C281.531 340.568 281.848 340.489 282.162 340.33C282.48 340.17 282.743 339.93 282.952 339.608C283.164 339.286 283.268 338.877 283.264 338.381ZM293.791 335.403L292.251 335.676C292.187 335.479 292.085 335.292 291.945 335.114C291.808 334.936 291.623 334.79 291.388 334.676C291.153 334.562 290.859 334.506 290.507 334.506C290.026 334.506 289.625 334.614 289.303 334.83C288.981 335.042 288.82 335.316 288.82 335.653C288.82 335.945 288.928 336.18 289.143 336.358C289.359 336.536 289.708 336.682 290.189 336.795L291.575 337.114C292.378 337.299 292.977 337.585 293.371 337.972C293.765 338.358 293.962 338.86 293.962 339.477C293.962 340 293.81 340.466 293.507 340.875C293.208 341.28 292.789 341.598 292.251 341.83C291.717 342.061 291.098 342.176 290.393 342.176C289.416 342.176 288.619 341.968 288.001 341.551C287.384 341.131 287.005 340.534 286.865 339.761L288.507 339.511C288.609 339.939 288.82 340.263 289.138 340.483C289.456 340.699 289.871 340.807 290.382 340.807C290.939 340.807 291.384 340.691 291.717 340.46C292.051 340.225 292.217 339.939 292.217 339.602C292.217 339.33 292.115 339.1 291.911 338.915C291.71 338.729 291.401 338.589 290.984 338.494L289.507 338.17C288.693 337.985 288.09 337.689 287.7 337.284C287.314 336.879 287.121 336.366 287.121 335.744C287.121 335.229 287.265 334.778 287.553 334.392C287.84 334.006 288.238 333.705 288.746 333.489C289.253 333.269 289.835 333.159 290.49 333.159C291.433 333.159 292.176 333.364 292.717 333.773C293.259 334.178 293.617 334.722 293.791 335.403ZM304.217 333.273V334.636H299.286V333.273H304.217ZM300.638 342V332.261C300.638 331.716 300.757 331.263 300.996 330.903C301.234 330.54 301.551 330.269 301.945 330.091C302.339 329.909 302.767 329.818 303.229 329.818C303.57 329.818 303.861 329.847 304.104 329.903C304.346 329.956 304.526 330.006 304.643 330.051L304.246 331.426C304.166 331.403 304.064 331.377 303.939 331.347C303.814 331.312 303.662 331.295 303.484 331.295C303.071 331.295 302.776 331.398 302.598 331.602C302.424 331.807 302.337 332.102 302.337 332.489V342H300.638ZM305.97 342V333.273H307.612V334.659H307.703C307.862 334.189 308.143 333.82 308.544 333.551C308.949 333.278 309.408 333.142 309.919 333.142C310.025 333.142 310.15 333.146 310.294 333.153C310.442 333.161 310.557 333.17 310.641 333.182V334.807C310.572 334.788 310.451 334.767 310.277 334.744C310.103 334.718 309.929 334.705 309.754 334.705C309.353 334.705 308.995 334.79 308.68 334.96C308.37 335.127 308.124 335.36 307.942 335.659C307.76 335.955 307.669 336.292 307.669 336.67V342H305.97ZM312.111 342V333.273H313.81V342H312.111ZM312.969 331.926C312.673 331.926 312.42 331.828 312.207 331.631C311.999 331.43 311.895 331.191 311.895 330.915C311.895 330.634 311.999 330.396 312.207 330.199C312.42 329.998 312.673 329.898 312.969 329.898C313.264 329.898 313.516 329.998 313.724 330.199C313.937 330.396 314.043 330.634 314.043 330.915C314.043 331.191 313.937 331.43 313.724 331.631C313.516 331.828 313.264 331.926 312.969 331.926ZM317.794 336.818V342H316.095V333.273H317.726V334.693H317.834C318.035 334.231 318.349 333.86 318.777 333.58C319.209 333.299 319.752 333.159 320.408 333.159C321.002 333.159 321.523 333.284 321.97 333.534C322.417 333.78 322.764 334.148 323.01 334.636C323.256 335.125 323.379 335.729 323.379 336.449V342H321.68V336.653C321.68 336.021 321.516 335.527 321.186 335.17C320.857 334.811 320.404 334.631 319.828 334.631C319.434 334.631 319.084 334.716 318.777 334.886C318.474 335.057 318.233 335.307 318.055 335.636C317.881 335.962 317.794 336.356 317.794 336.818ZM329.317 345.455C328.624 345.455 328.027 345.364 327.527 345.182C327.031 345 326.625 344.759 326.311 344.46C325.997 344.161 325.762 343.833 325.607 343.477L327.067 342.875C327.169 343.042 327.305 343.218 327.476 343.403C327.65 343.593 327.885 343.754 328.18 343.886C328.48 344.019 328.864 344.085 329.334 344.085C329.978 344.085 330.51 343.928 330.93 343.614C331.351 343.303 331.561 342.807 331.561 342.125V340.409H331.453C331.351 340.595 331.203 340.801 331.01 341.028C330.821 341.256 330.559 341.453 330.226 341.619C329.893 341.786 329.459 341.869 328.925 341.869C328.235 341.869 327.614 341.708 327.061 341.386C326.512 341.061 326.076 340.581 325.754 339.949C325.436 339.312 325.277 338.53 325.277 337.602C325.277 336.674 325.434 335.879 325.749 335.216C326.067 334.553 326.502 334.045 327.055 333.693C327.608 333.337 328.235 333.159 328.936 333.159C329.478 333.159 329.915 333.25 330.249 333.432C330.582 333.61 330.841 333.818 331.027 334.057C331.216 334.295 331.362 334.506 331.464 334.688H331.589V333.273H333.254V342.193C333.254 342.943 333.08 343.559 332.732 344.04C332.383 344.521 331.911 344.877 331.317 345.108C330.726 345.339 330.059 345.455 329.317 345.455ZM329.3 340.46C329.788 340.46 330.201 340.347 330.538 340.119C330.879 339.888 331.137 339.559 331.311 339.131C331.489 338.699 331.578 338.182 331.578 337.58C331.578 336.992 331.491 336.475 331.317 336.028C331.143 335.581 330.887 335.233 330.55 334.983C330.213 334.729 329.796 334.602 329.3 334.602C328.788 334.602 328.362 334.735 328.021 335C327.68 335.261 327.423 335.617 327.249 336.068C327.078 336.519 326.993 337.023 326.993 337.58C326.993 338.152 327.08 338.653 327.254 339.085C327.429 339.517 327.686 339.854 328.027 340.097C328.372 340.339 328.796 340.46 329.3 340.46ZM335.533 342V333.273H337.232V342H335.533ZM336.391 331.926C336.095 331.926 335.841 331.828 335.629 331.631C335.421 331.43 335.317 331.191 335.317 330.915C335.317 330.634 335.421 330.396 335.629 330.199C335.841 329.998 336.095 329.898 336.391 329.898C336.686 329.898 336.938 329.998 337.146 330.199C337.358 330.396 337.464 330.634 337.464 330.915C337.464 331.191 337.358 331.43 337.146 331.631C336.938 331.828 336.686 331.926 336.391 331.926ZM341.216 330.364V342H339.517V330.364H341.216ZM345.2 330.364V342H343.501V330.364H345.2ZM350.026 342.193C349.473 342.193 348.973 342.091 348.526 341.886C348.079 341.678 347.724 341.377 347.463 340.983C347.205 340.589 347.077 340.106 347.077 339.534C347.077 339.042 347.171 338.636 347.361 338.318C347.55 338 347.806 337.748 348.128 337.562C348.45 337.377 348.81 337.237 349.207 337.142C349.605 337.047 350.01 336.975 350.423 336.926C350.946 336.866 351.37 336.816 351.696 336.778C352.022 336.737 352.259 336.67 352.406 336.58C352.554 336.489 352.628 336.341 352.628 336.136V336.097C352.628 335.6 352.488 335.216 352.207 334.943C351.931 334.67 351.518 334.534 350.969 334.534C350.397 334.534 349.946 334.661 349.616 334.915C349.291 335.165 349.065 335.443 348.94 335.75L347.344 335.386C347.533 334.856 347.81 334.428 348.173 334.102C348.541 333.773 348.963 333.534 349.44 333.386C349.918 333.235 350.42 333.159 350.946 333.159C351.295 333.159 351.664 333.201 352.054 333.284C352.448 333.364 352.815 333.511 353.156 333.727C353.501 333.943 353.783 334.252 354.003 334.653C354.223 335.051 354.332 335.568 354.332 336.205V342H352.673V340.807H352.605C352.495 341.027 352.33 341.242 352.111 341.455C351.891 341.667 351.609 341.843 351.264 341.983C350.92 342.123 350.507 342.193 350.026 342.193ZM350.395 340.83C350.865 340.83 351.266 340.737 351.599 340.551C351.937 340.366 352.192 340.123 352.366 339.824C352.545 339.521 352.634 339.197 352.634 338.852V337.727C352.573 337.788 352.455 337.845 352.281 337.898C352.111 337.947 351.916 337.991 351.696 338.028C351.476 338.062 351.262 338.095 351.054 338.125C350.846 338.152 350.671 338.174 350.531 338.193C350.202 338.235 349.901 338.305 349.628 338.403C349.359 338.502 349.143 338.644 348.98 338.83C348.821 339.011 348.741 339.254 348.741 339.557C348.741 339.977 348.897 340.295 349.207 340.511C349.518 340.723 349.914 340.83 350.395 340.83Z" fill="#676767"/>
<rect width="411" height="348" rx="12" fill="#F2E9F6"/>
<g clip-path="url(#clip0_736_378)">
<path d="M93.6792 157.047C90.5835 157.047 89.6548 158.406 89.6548 161.434V166.438H97.9512L97.1463 174.593H89.6548V199.243H79.6867V174.593H73V166.499H79.6867V161.619C79.6867 153.34 83.03 149.016 92.2552 149.016C94.1745 149.016 96.1557 149.139 98.075 149.386V157.047" fill="#B185DB"/>
<path d="M98.6322 181.821C98.6322 172.677 102.966 165.758 112.129 165.758C117.083 165.758 120.116 168.291 121.602 171.504V166.499H131.137V199.305H121.54V194.362C120.178 197.513 117.021 199.984 112.067 199.984C102.966 199.984 98.5703 193.127 98.5703 183.921L98.6322 181.821ZM108.6 184.045C108.6 188.926 110.396 192.2 115.039 192.2C119.126 192.2 121.169 189.234 121.169 184.539V181.203C121.169 176.508 119.064 173.542 115.039 173.542C110.396 173.542 108.6 176.755 108.6 181.697V184.045Z" fill="#B185DB"/>
<path d="M151.816 165.758C155.655 165.758 159.37 166.561 161.351 167.982L159.122 175.025C157.079 174.037 154.788 173.542 152.497 173.542C147.111 173.542 144.758 176.631 144.758 181.944V183.86C144.758 189.173 147.111 192.262 152.497 192.262C154.788 192.262 157.079 191.706 159.122 190.717L161.351 197.76C159.37 199.119 155.717 199.984 151.816 199.984C140.114 199.984 134.852 193.744 134.852 183.674V182.13C134.852 172.06 140.114 165.758 151.816 165.758Z" fill="#B185DB"/>
<path d="M162.651 184.107V181.203C162.651 171.874 167.976 165.758 178.81 165.758C189.026 165.758 193.546 171.936 193.546 181.079V186.331H172.619C172.805 190.841 174.848 192.818 180.358 192.818C183.949 192.818 187.54 192.138 190.946 190.841L192.741 197.637C190.141 198.996 184.754 200.046 179.987 200.046C167.356 199.984 162.651 193.744 162.651 184.107ZM172.619 179.782H184.63V178.979C184.63 175.396 183.206 172.554 178.81 172.554C174.353 172.554 172.619 175.396 172.619 179.782Z" fill="#B185DB"/>
<path d="M230.447 183.921C230.447 193.065 226.051 199.984 216.887 199.984C211.934 199.984 208.467 197.513 207.105 194.362V199.305H197.694V150.004L207.662 149.139V171.071C209.086 168.168 212.306 165.82 216.949 165.82C226.051 165.82 230.508 172.677 230.508 181.883L230.447 183.921ZM220.478 181.636C220.478 177.002 218.683 173.542 213.916 173.542C209.829 173.542 207.662 176.446 207.662 181.141V184.601C207.662 189.296 209.891 192.2 213.916 192.2C218.683 192.2 220.478 188.74 220.478 184.107V181.636Z" fill="#B185DB"/>
<path d="M233.728 183.674V182.006C233.728 172.554 239.115 165.758 250.073 165.758C261.032 165.758 266.418 172.554 266.418 182.006V183.674C266.418 193.127 261.032 199.922 250.073 199.922C239.115 199.922 233.728 193.188 233.728 183.674ZM256.512 181.327C256.512 177.002 254.717 173.542 250.073 173.542C245.43 173.542 243.634 177.002 243.634 181.327V184.416C243.634 188.74 245.43 192.2 250.073 192.2C254.717 192.2 256.512 188.74 256.512 184.416V181.327Z" fill="#B185DB"/>
<path d="M269.824 183.674V182.006C269.824 172.554 275.21 165.758 286.169 165.758C297.128 165.758 302.514 172.554 302.514 182.006V183.674C302.514 193.127 297.128 199.922 286.169 199.922C275.21 199.922 269.824 193.188 269.824 183.674ZM292.608 181.327C292.608 177.002 290.812 173.542 286.169 173.542C281.525 173.542 279.73 177.002 279.73 181.327V184.416C279.73 188.74 281.525 192.2 286.169 192.2C290.812 192.2 292.608 188.74 292.608 184.416V181.327Z" fill="#B185DB"/>
<path d="M316.197 182.13L326.041 166.438H336.567L326.289 182.686L337 199.305H326.413L316.197 183.242V199.305H306.291V150.004L316.197 149.078" fill="#B185DB"/>
</g>
<defs>
<clipPath id="clip0_736_378">
<rect width="264" height="51" fill="white" transform="translate(73 149)"/>
</clipPath>
</defs>
</svg>
