<svg width="128" height="64" viewBox="0 0 128 64" fill="none" xmlns="http://www.w3.org/2000/svg">
<path d="M0 60.5567H75.8381" stroke="#5C15BD" stroke-width="0.505649" stroke-miterlimit="10"/>
<path d="M81.2603 60.4133L80.8743 63.5154H79.9072L80.8171 56.1179H82.7788C83.1251 56.112 83.4706 56.1538 83.8053 56.2421C84.0669 56.3097 84.3116 56.4301 84.5243 56.5957C84.7098 56.744 84.8556 56.9356 84.9484 57.1534C85.0425 57.3854 85.0894 57.6336 85.0863 57.8836C85.0888 58.1698 85.0429 58.4544 84.9505 58.7254C84.8632 58.9782 84.731 59.2134 84.5603 59.42C84.3868 59.6274 84.1788 59.804 83.9453 59.9419C83.6939 60.0897 83.4204 60.197 83.1351 60.2597C83.2502 60.3399 83.3446 60.4459 83.4108 60.569L85.0184 63.5154H84.1552C84.0802 63.5203 84.0054 63.503 83.9404 63.4655C83.8755 63.428 83.8232 63.3721 83.7904 63.3049L82.3843 60.6448C82.3499 60.5712 82.2956 60.5085 82.2274 60.4638C82.1397 60.4245 82.0435 60.4071 81.9475 60.4133H81.2603ZM81.7014 56.8777L81.3494 59.7104H82.2995C82.565 59.7149 82.8292 59.6728 83.08 59.5862C83.2929 59.5122 83.4875 59.3938 83.6505 59.239C83.8044 59.089 83.9232 58.9072 83.9983 58.7065C84.0784 58.491 84.1179 58.2627 84.1149 58.0331C84.1257 57.8724 84.0992 57.7115 84.0374 57.5626C83.9756 57.4138 83.8803 57.2809 83.7586 57.1744C83.4506 56.9564 83.0757 56.8515 82.6982 56.8777H81.7014Z" fill="#5C15BD"/>
<path d="M90.2653 59.4748C90.2686 59.6855 90.219 59.894 90.1203 60.084C89.9974 60.2941 89.8121 60.4674 89.5863 60.5836C89.2519 60.7582 88.8923 60.8882 88.5184 60.9694C87.9447 61.0974 87.3615 61.1857 86.7736 61.2334C86.7715 61.2686 86.7715 61.3038 86.7736 61.339V61.4466C86.748 61.8088 86.8599 62.1679 87.09 62.462C87.2091 62.5838 87.3568 62.6787 87.5217 62.7396C87.6866 62.8005 87.8644 62.8257 88.0415 62.8134C88.1934 62.8139 88.3447 62.7969 88.492 62.7626C88.617 62.7335 88.7385 62.6927 88.8546 62.6407C88.9532 62.5961 89.0467 62.5423 89.1336 62.4803L89.3534 62.3219C89.414 62.2782 89.4771 62.2376 89.5424 62.2001C89.5932 62.1687 89.6526 62.1511 89.7138 62.1493C89.7485 62.1502 89.7825 62.1584 89.8133 62.1731C89.8441 62.1879 89.8709 62.2089 89.8918 62.2346L90.1291 62.5087C89.9624 62.6734 89.7824 62.8262 89.5907 62.9657C89.4236 63.0854 89.2439 63.1895 89.0545 63.2764C88.8725 63.3595 88.6798 63.4209 88.481 63.4591C88.2689 63.4974 88.0533 63.5165 87.8371 63.516C87.549 63.5199 87.263 63.4709 86.9955 63.3718C86.7555 63.2811 86.5401 63.1424 86.3649 62.9657C86.1861 62.7784 86.0507 62.5594 85.9671 62.3219C85.8694 62.0489 85.8219 61.7626 85.8265 61.4751C85.826 60.9551 85.9443 60.441 86.1737 59.9662C86.2856 59.7367 86.4249 59.5194 86.589 59.3184C86.7479 59.1224 86.9367 58.9487 87.1493 58.8026C87.3613 58.6577 87.5953 58.5427 87.8437 58.4614C88.1066 58.3773 88.383 58.3354 88.6612 58.3375C88.9053 58.3323 89.1483 58.3695 89.3776 58.4472C89.5607 58.5099 89.7293 58.6044 89.8742 58.7254C89.9967 58.8305 90.0947 58.9576 90.162 59.0991C90.2233 59.2167 90.2584 59.3444 90.2653 59.4748ZM88.6172 58.963C88.4004 58.9605 88.1859 59.005 87.991 59.093C87.798 59.1792 87.6254 59.3 87.4834 59.4484C87.3303 59.6075 87.2037 59.7869 87.1076 59.9804C87.0009 60.1917 86.9191 60.413 86.8637 60.6404C87.3121 60.5952 87.7569 60.5233 88.1953 60.4252C88.4631 60.3665 88.7221 60.2778 88.9666 60.1612C89.1156 60.0939 89.2395 59.9871 89.3226 59.8545C89.3789 59.7476 89.4082 59.6302 89.4083 59.5113C89.4072 59.447 89.3923 59.3835 89.3644 59.3245C89.3331 59.2567 89.2866 59.1958 89.2281 59.1458C89.1553 59.0885 89.072 59.0438 88.982 59.0138C88.8646 58.9771 88.7411 58.96 88.6172 58.963Z" fill="#5C15BD"/>
<path d="M94.488 59.219C94.4679 59.2527 94.4415 59.2821 94.4103 59.3057C94.3806 59.3249 94.3459 59.3348 94.3106 59.334C94.2573 59.3307 94.206 59.3118 94.1631 59.2795C94.1093 59.2432 94.0435 59.2028 93.9638 59.1585C93.874 59.1083 93.7799 59.0665 93.6828 59.0334C93.5535 58.994 93.4191 58.975 93.2841 58.9769C93.1488 58.9763 93.0142 58.9974 92.8855 59.0394C92.7717 59.0769 92.6657 59.135 92.5725 59.2109C92.4884 59.2797 92.4203 59.3665 92.3732 59.4651C92.3257 59.5608 92.3011 59.6666 92.3015 59.7737C92.2983 59.843 92.3103 59.9122 92.3364 59.9763C92.3626 60.0405 92.4024 60.098 92.4529 60.1449C92.5659 60.2456 92.6945 60.3268 92.8336 60.385C92.9871 60.4535 93.1526 60.5181 93.33 60.5867C93.5036 60.6471 93.6701 60.7269 93.8263 60.8247C93.9774 60.9176 94.1072 61.0421 94.207 61.1899C94.3156 61.3623 94.3692 61.5645 94.3605 61.7688C94.3605 61.9976 94.3142 62.2239 94.2244 62.4339C94.1346 62.6438 94.0031 62.8328 93.8382 62.9893C93.6641 63.1534 93.4613 63.2834 93.2403 63.3726C92.986 63.4714 92.7153 63.5201 92.443 63.5158C92.1542 63.5219 91.8676 63.4634 91.6038 63.3443C91.3759 63.2433 91.172 63.094 91.0059 62.9066L91.2171 62.5556C91.2409 62.5161 91.2729 62.4824 91.3108 62.4567C91.3519 62.4326 91.3989 62.4208 91.4464 62.4224C91.5052 62.4257 91.561 62.45 91.6038 62.491C91.6557 62.5374 91.7214 62.5899 91.8031 62.6484C91.8948 62.7122 91.9939 62.7644 92.0981 62.8037C92.2437 62.8539 92.3969 62.8771 92.5506 62.8723C92.6979 62.8745 92.8444 62.8499 92.9831 62.7996C93.1037 62.7538 93.2146 62.6854 93.31 62.5979C93.3969 62.518 93.465 62.4195 93.5093 62.3095C93.5573 62.1981 93.5818 62.0779 93.5811 61.9564C93.5853 61.8822 93.574 61.8079 93.5479 61.7383C93.5218 61.6688 93.4815 61.6056 93.4296 61.553C93.3186 61.4476 93.1896 61.3635 93.0489 61.3048C92.8954 61.2403 92.73 61.1778 92.5546 61.1193C92.3822 61.064 92.2165 60.9895 92.0603 60.8974C91.9095 60.8091 91.7796 60.6887 91.6796 60.5443C91.5709 60.3719 91.5179 60.1696 91.5281 59.9654C91.5289 59.7573 91.5709 59.5515 91.6517 59.3602C91.7356 59.163 91.8584 58.9852 92.0124 58.8377C92.1768 58.6807 92.3698 58.5574 92.5805 58.4746C92.8213 58.3804 93.0778 58.3338 93.3359 58.3374C93.6053 58.332 93.8727 58.3836 94.1213 58.4887C94.3403 58.583 94.5387 58.7201 94.7053 58.8922L94.488 59.219Z" fill="#5C15BD"/>
<path d="M97.2572 58.3804L96.5115 63.5162H95.4453L96.1909 58.3804H97.2572ZM97.6648 56.7684C97.6661 56.8532 97.6448 56.9371 97.6026 57.0143C97.5599 57.0908 97.5019 57.1607 97.4311 57.221C97.3591 57.2798 97.2749 57.3274 97.1826 57.3615C97.0942 57.3944 96.9985 57.4113 96.9018 57.4111C96.8074 57.4108 96.7143 57.3939 96.6284 57.3615C96.5395 57.3277 96.4594 57.28 96.3923 57.221C96.3245 57.1603 96.2699 57.0904 96.2307 57.0143C96.1905 56.9367 96.1701 56.8529 96.171 56.7684C96.1706 56.6832 96.1909 56.5989 96.2307 56.5204C96.2703 56.4435 96.3268 56.3734 96.3972 56.3137C96.4679 56.253 96.5524 56.2045 96.6458 56.1711C96.7317 56.1363 96.826 56.118 96.9216 56.1174C97.0178 56.118 97.1127 56.1356 97.2 56.169C97.3845 56.2376 97.531 56.3616 97.6101 56.5162C97.6485 56.5964 97.6671 56.6821 97.6648 56.7684Z" fill="#5C15BD"/>
<path d="M101.926 63.4383C101.873 63.4446 101.819 63.4387 101.769 63.4211C101.719 63.4036 101.675 63.3751 101.64 63.3381C101.587 63.268 101.56 63.1844 101.563 63.0996L101.679 61.9452C101.536 62.1723 101.37 62.3878 101.185 62.5892C101.015 62.7727 100.823 62.9386 100.612 63.084C100.422 63.2162 100.213 63.3235 99.9897 63.4027C99.7799 63.4752 99.5573 63.513 99.3326 63.5141C99.0954 63.5263 98.8586 63.4855 98.6431 63.3953C98.4276 63.3051 98.2402 63.1683 98.0974 62.9971C97.8083 62.6539 97.665 62.1524 97.665 61.4972C97.6691 60.8948 97.8043 60.2989 98.0628 59.7433C98.1852 59.4751 98.3392 59.2196 98.5223 58.9811C98.6927 58.7553 98.8944 58.5501 99.1226 58.3705C99.3364 58.2029 99.5782 58.0668 99.839 57.9671C100.096 57.8678 100.372 57.8169 100.652 57.8178C100.935 57.815 101.215 57.8691 101.472 57.976C101.718 58.0794 101.935 58.2318 102.107 58.4218L102.524 55.3775H103.584L102.482 63.4294L101.926 63.4383ZM99.7278 62.7319C99.9356 62.7279 100.138 62.6724 100.313 62.5714C100.527 62.4505 100.719 62.3001 100.881 62.1257C101.08 61.9146 101.253 61.6853 101.398 61.4415C101.563 61.1636 101.702 60.8736 101.813 60.5746L102.01 59.1104C101.873 58.9296 101.682 58.7874 101.46 58.7003C101.255 58.6217 101.035 58.5808 100.812 58.58C100.5 58.5782 100.197 58.6691 99.9477 58.8385C99.6822 59.0197 99.4596 59.2471 99.293 59.5071C99.1083 59.7909 98.9694 60.0971 98.8805 60.4164C98.7842 60.739 98.7352 61.0717 98.7347 61.4059C98.7067 61.7512 98.7927 62.0963 98.9818 62.3976C99.063 62.5072 99.1746 62.5957 99.3054 62.6543C99.4363 62.713 99.5819 62.7397 99.7278 62.7319Z" fill="#5C15BD"/>
<path d="M108.023 59.4808C108.026 59.6915 107.977 59.9001 107.878 60.0901C107.754 60.2992 107.569 60.4722 107.344 60.5896C107.01 60.7643 106.65 60.8942 106.276 60.9755C105.702 61.1037 105.118 61.1919 104.529 61.2395C104.529 61.276 104.529 61.3106 104.529 61.3451V61.4527C104.504 61.8145 104.615 62.1733 104.843 62.4681C104.963 62.5896 105.11 62.6844 105.275 62.7452C105.44 62.8061 105.618 62.8315 105.795 62.8194C105.95 62.8208 106.106 62.8037 106.256 62.7687C106.381 62.7396 106.501 62.6988 106.617 62.6468C106.716 62.6026 106.811 62.5489 106.898 62.4864L107.118 62.328C107.178 62.2838 107.241 62.2431 107.307 62.2061C107.356 62.1772 107.413 62.1611 107.472 62.1594C107.506 62.1608 107.54 62.1691 107.571 62.1839C107.602 62.1986 107.628 62.2194 107.65 62.2447L107.887 62.5189C107.72 62.6809 107.541 62.8316 107.351 62.9697C107.182 63.0877 107.002 63.1904 106.812 63.2764C106.63 63.3589 106.437 63.4203 106.239 63.4591C106.027 63.4974 105.811 63.5165 105.595 63.516C105.307 63.5201 105.021 63.4711 104.753 63.3718C104.513 63.2817 104.297 63.1429 104.123 62.9657C103.943 62.7784 103.807 62.5594 103.723 62.3219C103.627 62.0485 103.58 61.7624 103.584 61.4751C103.584 61.215 103.613 60.9556 103.672 60.7013C103.729 60.4483 103.816 60.2017 103.931 59.9662C104.042 59.7358 104.181 59.5184 104.347 59.3184C104.506 59.1224 104.694 58.9486 104.907 58.8025C105.119 58.6574 105.353 58.5424 105.602 58.4614C105.864 58.3769 106.141 58.335 106.419 58.3375C106.663 58.3324 106.906 58.3696 107.135 58.4472C107.318 58.5105 107.487 58.6048 107.632 58.7254C107.754 58.831 107.852 58.958 107.92 59.099C107.981 59.2189 108.016 59.3486 108.023 59.4808ZM106.373 58.9691C106.157 58.9665 105.943 59.0111 105.749 59.099C105.556 59.1853 105.383 59.3061 105.241 59.4544C105.088 59.6136 104.961 59.7929 104.865 59.9865C104.758 60.1974 104.676 60.4188 104.621 60.6465C105.07 60.6013 105.515 60.5294 105.953 60.4312C106.221 60.3725 106.48 60.2839 106.724 60.1672C106.873 60.0988 106.996 59.9923 107.08 59.8606C107.137 59.7536 107.166 59.6363 107.166 59.5174C107.165 59.453 107.15 59.3895 107.122 59.3306C107.091 59.2628 107.044 59.2019 106.986 59.1518C106.913 59.0946 106.83 59.0499 106.74 59.0198C106.622 58.9831 106.497 58.9659 106.373 58.9691Z" fill="#5C15BD"/>
<path d="M108.763 63.5162L109.476 58.4184H109.994C110.042 58.4122 110.091 58.4157 110.137 58.4286C110.182 58.4416 110.224 58.4636 110.258 58.4928C110.292 58.5221 110.318 58.5579 110.334 58.5973C110.349 58.6366 110.353 58.6786 110.346 58.7197L110.258 59.7057C110.52 59.3003 110.883 58.9502 111.321 58.6808C111.682 58.4622 112.11 58.3429 112.551 58.3384C112.744 58.33 112.937 58.3602 113.114 58.4267C113.292 58.4932 113.449 58.5942 113.573 58.7217C113.84 59.0461 113.969 59.4401 113.937 59.8368C113.937 59.9045 113.937 59.9721 113.937 60.0418C113.937 60.1115 113.937 60.1853 113.913 60.2632L113.459 63.5162H112.42L112.865 60.2734C112.865 60.2058 112.879 60.1423 112.884 60.0787C112.887 60.0193 112.887 59.9598 112.884 59.9004C112.904 59.6841 112.841 59.4682 112.705 59.2854C112.638 59.2157 112.553 59.1607 112.456 59.1251C112.359 59.0894 112.254 59.0741 112.149 59.0805C111.95 59.0838 111.755 59.1288 111.581 59.2116C111.374 59.3094 111.185 59.4339 111.022 59.5806C110.833 59.7586 110.669 59.9554 110.534 60.1669C110.373 60.4074 110.241 60.6616 110.14 60.9253L109.802 63.5142L108.763 63.5162Z" fill="#5C15BD"/>
<path d="M118.316 63.0129C118.158 63.1316 117.986 63.233 117.802 63.3151C117.631 63.3877 117.451 63.4402 117.266 63.4713C117.069 63.5023 116.869 63.5172 116.669 63.5159C116.375 63.5207 116.083 63.4696 115.812 63.3658C115.572 63.2708 115.36 63.1272 115.191 62.946C115.018 62.7542 114.889 62.5328 114.812 62.295C114.723 62.0231 114.679 61.7408 114.682 61.4573C114.684 61.0574 114.76 60.6605 114.906 60.283C115.038 59.9231 115.238 59.5863 115.496 59.2872C115.741 59.0045 116.046 58.7692 116.393 58.5956C116.746 58.4226 117.141 58.3339 117.542 58.338C117.861 58.3284 118.178 58.389 118.466 58.5145C118.724 58.6393 118.948 58.8154 119.121 59.0296L118.814 59.3622C118.791 59.3891 118.763 59.4112 118.731 59.4271C118.697 59.4436 118.659 59.452 118.621 59.4515C118.564 59.4492 118.51 59.4274 118.47 59.3906C118.409 59.3405 118.345 59.2938 118.278 59.2507C118.185 59.1935 118.084 59.1465 117.979 59.1108C117.835 59.0672 117.683 59.0466 117.531 59.0499C117.277 59.0501 117.028 59.114 116.813 59.2345C116.58 59.3671 116.379 59.541 116.223 59.7456C116.044 59.9795 115.909 60.2385 115.824 60.5122C115.724 60.8206 115.675 61.1403 115.678 61.4614C115.675 61.6502 115.701 61.8385 115.754 62.0212C115.797 62.1757 115.873 62.3211 115.978 62.4491C116.079 62.5651 116.208 62.6588 116.355 62.7229C116.518 62.7904 116.696 62.8237 116.876 62.8203C117.146 62.8223 117.414 62.766 117.656 62.656C117.749 62.6134 117.837 62.5624 117.919 62.5039L118.123 62.3518C118.183 62.3051 118.237 62.2666 118.286 62.2341C118.331 62.205 118.384 62.1887 118.439 62.1875C118.475 62.187 118.511 62.1945 118.544 62.2093C118.576 62.2241 118.604 62.2459 118.625 62.2727L118.867 62.5404C118.696 62.7098 118.512 62.8677 118.316 63.0129Z" fill="#5C15BD"/>
<path d="M123.56 59.4808C123.564 59.6916 123.514 59.9001 123.415 60.0901C123.292 60.3002 123.106 60.4735 122.88 60.5896C122.544 60.7643 122.184 60.8942 121.809 60.9755C121.234 61.1035 120.649 61.1918 120.06 61.2395C120.058 61.2747 120.058 61.3099 120.06 61.3451V61.4527C120.034 61.8149 120.146 62.174 120.377 62.4681C120.496 62.5898 120.644 62.6848 120.81 62.7457C120.975 62.8066 121.153 62.8318 121.331 62.8194C121.486 62.8207 121.641 62.8036 121.791 62.7687C121.917 62.7396 122.038 62.6988 122.155 62.6468C122.254 62.6022 122.347 62.5484 122.435 62.4864L122.655 62.328C122.716 62.2843 122.779 62.2436 122.844 62.2061C122.895 62.1748 122.955 62.1572 123.016 62.1554C123.051 62.1563 123.085 62.1645 123.116 62.1792C123.147 62.194 123.174 62.215 123.195 62.2407L123.432 62.5148C123.266 62.6773 123.086 62.828 122.895 62.9657C122.727 63.0854 122.547 63.1895 122.357 63.2764C122.175 63.3595 121.982 63.4209 121.783 63.4591C121.57 63.4974 121.354 63.5165 121.137 63.516C120.848 63.5201 120.561 63.4711 120.293 63.3718C120.053 63.2811 119.837 63.1424 119.661 62.9657C119.482 62.7784 119.346 62.5593 119.262 62.3219C119.164 62.0489 119.117 61.7626 119.121 61.4751C119.121 60.9551 119.239 60.441 119.469 59.9662C119.582 59.7367 119.721 59.5194 119.886 59.3184C120.045 59.1224 120.234 58.9487 120.448 58.8026C120.66 58.6577 120.895 58.5427 121.144 58.4614C121.407 58.3769 121.684 58.335 121.963 58.3375C122.208 58.3323 122.451 58.3695 122.681 58.4472C122.865 58.5099 123.034 58.6044 123.179 58.7254C123.302 58.8305 123.4 58.9576 123.468 59.0991C123.526 59.2193 123.558 59.3491 123.56 59.4808ZM121.906 58.9691C121.689 58.9668 121.475 59.0113 121.28 59.0991C121.087 59.1853 120.914 59.3061 120.771 59.4544C120.618 59.6136 120.491 59.7929 120.395 59.9865C120.287 60.1974 120.205 60.4188 120.15 60.6465C120.6 60.6013 121.046 60.5294 121.485 60.4312C121.754 60.3726 122.013 60.2839 122.258 60.1672C122.408 60.1 122.532 59.9932 122.615 59.8606C122.672 59.7537 122.701 59.6363 122.701 59.5174C122.7 59.453 122.685 59.3895 122.657 59.3306C122.626 59.2628 122.579 59.2019 122.52 59.1519C122.447 59.0946 122.364 59.0499 122.274 59.0199C122.155 58.9831 122.031 58.9659 121.906 58.9691Z" fill="#5C15BD"/>
<path d="M127.732 59.2072C127.707 59.2412 127.675 59.2707 127.637 59.2942C127.602 59.3137 127.561 59.3236 127.52 59.3225C127.456 59.3196 127.394 59.3006 127.343 59.2679C127.279 59.2315 127.199 59.191 127.104 59.1465C126.997 59.0955 126.884 59.0535 126.767 59.0211C126.612 58.9813 126.451 58.9621 126.289 58.9645C126.127 58.9639 125.966 58.985 125.811 59.0272C125.675 59.0647 125.548 59.123 125.436 59.1991C125.336 59.2689 125.255 59.3557 125.197 59.454C125.142 59.5505 125.113 59.6563 125.114 59.7635C125.11 59.833 125.124 59.9024 125.156 59.9667C125.187 60.031 125.235 60.0887 125.295 60.1357C125.431 60.2367 125.585 60.318 125.752 60.3764C125.936 60.4452 126.134 60.5099 126.346 60.5787C126.555 60.6393 126.754 60.7193 126.941 60.8174C127.123 60.9105 127.278 61.0353 127.398 61.1835C127.527 61.3567 127.591 61.5593 127.579 61.764C127.58 61.9928 127.526 62.2194 127.419 62.4295C127.311 62.6403 127.153 62.8302 126.956 62.9878C126.747 63.1525 126.504 63.2828 126.239 63.3722C125.934 63.4713 125.61 63.5201 125.283 63.5158C124.937 63.5219 124.594 63.4632 124.277 63.3438C124.004 63.2425 123.76 63.0929 123.561 62.9049L123.819 62.5671C123.846 62.5276 123.884 62.4938 123.929 62.468C123.979 62.4439 124.036 62.432 124.093 62.4336C124.164 62.4372 124.231 62.4615 124.282 62.5024C124.344 62.5489 124.423 62.6015 124.521 62.6601C124.631 62.7246 124.749 62.7769 124.875 62.8159C125.049 62.8663 125.233 62.8897 125.417 62.8847C125.594 62.8867 125.769 62.8621 125.936 62.8119C126.08 62.7659 126.213 62.6973 126.327 62.6096C126.432 62.5295 126.513 62.4306 126.566 62.3203C126.624 62.2087 126.653 62.0881 126.652 61.9663C126.657 61.8919 126.644 61.8173 126.613 61.7476C126.581 61.6779 126.533 61.6146 126.471 61.5618C126.337 61.4565 126.183 61.3722 126.014 61.313C125.83 61.2482 125.632 61.1855 125.422 61.1269C125.215 61.0714 125.016 60.9968 124.829 60.9044C124.649 60.8159 124.493 60.6951 124.373 60.5504C124.243 60.3775 124.179 60.1746 124.191 59.9698C124.192 59.7612 124.243 59.5548 124.339 59.363C124.44 59.1653 124.587 58.987 124.772 58.8391C124.969 58.6816 125.2 58.558 125.453 58.475C125.742 58.3805 126.049 58.3338 126.358 58.3374C126.681 58.332 127.002 58.3837 127.3 58.4891C127.562 58.5837 127.8 58.7211 128 58.8937L127.732 59.2072Z" fill="#5C15BD"/>
<path d="M54.0474 0.20351C55.0168 0.311393 55.9037 0.799969 56.5129 1.56175C57.1221 2.32354 57.4038 3.29613 57.2959 4.26557L56.6681 9.90645L53.0128 9.49967C52.7728 9.47296 52.5404 9.39924 52.3289 9.28272C52.1174 9.16619 51.9309 9.00915 51.7801 8.82055C51.6293 8.63195 51.5171 8.41549 51.4499 8.18353C51.3827 7.95157 51.3619 7.70865 51.3886 7.46864L52.0163 1.82777C52.0703 1.34305 52.3146 0.899605 52.6955 0.594998C53.0764 0.290391 53.5626 0.149568 54.0474 0.20351Z" fill="#DFBF00"/>
<path d="M50.731 21.319L50.9013 22.3577C51.0236 23.0792 51.4266 23.723 52.0221 24.1484C52.6177 24.5738 53.3574 24.7462 54.0796 24.6279C54.8012 24.5056 55.445 24.1026 55.8704 23.507C56.2958 22.9115 56.4682 22.1718 56.3499 21.4495L55.2715 14.9679C53.8288 15.2113 52.5412 16.0161 51.6903 17.2062C50.8395 18.3964 50.4945 19.8752 50.731 21.319Z" fill="#DFBF00"/>
<path d="M63.4558 11.3127L64.2674 10.6429C64.5483 10.4138 64.7813 10.1315 64.9528 9.81216C65.1243 9.49281 65.231 9.14273 65.2669 8.78202C65.3028 8.42131 65.267 8.05707 65.1617 7.7102C65.0565 7.36334 64.8837 7.04069 64.6534 6.76076C64.4238 6.48048 64.1413 6.24817 63.822 6.07708C63.5027 5.906 63.1527 5.79949 62.7922 5.76365C62.4317 5.72781 62.0677 5.76334 61.7209 5.8682C61.3742 5.97307 61.0514 6.14521 60.7712 6.37481L55.6631 10.5408C56.1234 11.1042 56.6903 11.5712 57.3314 11.915C57.9726 12.2588 58.6753 12.4727 59.3992 12.5444C60.1232 12.6161 60.8542 12.5442 61.5503 12.3329C62.2464 12.1215 62.894 11.7748 63.4558 11.3127Z" fill="#DFBF00"/>
<path d="M60.0842 18.6344L61.0831 18.9692C61.4263 19.0852 61.789 19.1324 62.1505 19.1081C62.512 19.0838 62.8651 18.9886 63.1898 18.8279C63.5145 18.6671 63.8043 18.444 64.0427 18.1712C64.2811 17.8985 64.4635 17.5814 64.5793 17.2381C64.6951 16.8946 64.7421 16.5315 64.7175 16.1698C64.6928 15.808 64.5971 15.4547 64.4358 15.13C64.2745 14.8052 64.0508 14.5155 63.7774 14.2773C63.504 14.0392 63.1863 13.8572 62.8426 13.7419L56.6447 11.6703C56.1856 13.0501 56.2893 14.5553 56.9333 15.8592C57.5772 17.163 58.7095 18.1602 60.0842 18.6344Z" fill="#DFBF00"/>
<path d="M43.6246 15.229L42.9833 16.069C42.5389 16.6494 42.343 17.3826 42.4388 18.1073C42.5346 18.832 42.9142 19.4891 43.4941 19.9342C43.7809 20.1552 44.1084 20.3176 44.4581 20.4118C44.8077 20.5061 45.1724 20.5305 45.5315 20.4836C45.8905 20.4366 46.2368 20.3193 46.5504 20.1384C46.8641 19.9574 47.1389 19.7164 47.3592 19.429L51.3663 14.2187C50.2055 13.3266 48.738 12.9318 47.2863 13.1213C45.8346 13.3107 44.5176 14.0688 43.6246 15.229Z" fill="#DFBF00"/>
<path d="M46.7407 5.12624L45.7134 4.89354C44.9992 4.73246 44.2502 4.86133 43.6309 5.25185C43.0116 5.64236 42.5726 6.26263 42.4101 6.97652C42.2508 7.6914 42.3811 8.44029 42.7725 9.05935C43.1639 9.6784 43.7846 10.1172 44.4988 10.2798L50.9123 11.7214C51.0716 11.0144 51.0901 10.283 50.9666 9.5689C50.8432 8.8548 50.5802 8.17201 50.1928 7.55955C49.8054 6.9471 49.3012 6.41696 48.7088 5.99945C48.1165 5.58193 47.4477 5.28522 46.7407 5.12624Z" fill="#DFBF00"/>
<path d="M57.1376 3.1826C57.927 3.4057 58.5955 3.93327 58.996 4.64926C59.3965 5.36525 59.4961 6.21101 59.273 7.00048L57.9765 11.5884L54.9999 10.7472C54.6044 10.6354 54.2695 10.3712 54.0689 10.0125C53.8683 9.65387 53.8184 9.23021 53.9302 8.83476L55.2236 4.25777C55.2783 4.0613 55.3713 3.87757 55.4972 3.71712C55.6231 3.55667 55.7795 3.42265 55.9573 3.32276C56.1351 3.22287 56.3309 3.15907 56.5335 3.13502C56.736 3.11097 56.9413 3.12713 57.1376 3.1826Z" fill="#5C15BD"/>
<path d="M48.5794 18.5719L48.5113 19.4573C48.4658 20.0703 48.6647 20.6764 49.0645 21.1432C49.4644 21.61 50.0327 21.8997 50.6453 21.949C51.2583 21.996 51.865 21.7986 52.3329 21.3998C52.8009 21.001 53.092 20.4333 53.1426 19.8206L53.574 14.3038C52.3469 14.2128 51.1335 14.6103 50.198 15.4096C49.2626 16.209 48.6808 17.3456 48.5794 18.5719Z" fill="#5C15BD"/>
<path d="M63.738 10.5246C63.9829 11.3075 63.9067 12.1557 63.5263 12.8826C63.1458 13.6094 62.4922 14.1553 61.7092 14.4002L57.1699 15.8202L56.2464 12.868C56.1238 12.4758 56.1619 12.0509 56.3525 11.6868C56.5431 11.3227 56.8705 11.0493 57.2627 10.9266L61.802 9.50666C62.1937 9.3857 62.6174 9.42492 62.9803 9.61571C63.3431 9.8065 63.6156 10.1333 63.738 10.5246Z" fill="#5C15BD"/>
<path d="M60.8483 18.5804C60.4945 19.3206 59.8611 19.8899 59.0876 20.163C58.314 20.4362 57.4636 20.3909 56.7234 20.0371L52.4323 17.9857L53.7664 15.195C53.9437 14.8242 54.2609 14.539 54.6484 14.4022C55.0359 14.2654 55.4619 14.2881 55.8327 14.4653L60.1238 16.5167C60.493 16.6948 60.7766 17.0121 60.9124 17.3989C61.0482 17.7857 61.0251 18.2106 60.8483 18.5804Z" fill="#5C15BD"/>
<path d="M43.7913 14.9592C43.4743 14.2025 43.4709 13.3509 43.7818 12.5917C44.0927 11.8325 44.6925 11.228 45.4491 10.911L49.836 9.07321L51.0312 11.9262C51.19 12.3053 51.1917 12.7318 51.0359 13.1121C50.8802 13.4924 50.5798 13.7953 50.2007 13.9541L45.8139 15.7918C45.4349 15.9506 45.0083 15.9523 44.628 15.7966C44.2477 15.6408 43.9449 15.3404 43.7861 14.9614L43.7913 14.9592Z" fill="#5C15BD"/>
<path d="M45.9432 5.55374C46.321 4.82552 46.9726 4.2772 47.7547 4.02942C48.5367 3.78163 49.3852 3.85467 50.1134 4.23246L54.3353 6.42276L52.9108 9.1685C52.7216 9.53328 52.3952 9.80793 52.0034 9.93205C51.6117 10.0562 51.1867 10.0196 50.8219 9.83035L46.6 7.64006C46.2352 7.45081 45.9606 7.12441 45.8364 6.73266C45.7123 6.34091 45.7489 5.9159 45.9382 5.55113L45.9432 5.55374Z" fill="#5C15BD"/>
<path d="M59.3064 8.72465L59.3348 8.77006C59.4147 8.91359 59.4634 9.07235 59.4778 9.23599C59.4922 9.39962 59.472 9.56445 59.4184 9.71974C59.3649 9.87503 59.2792 10.0173 59.167 10.1373C59.0548 10.2572 58.9186 10.3522 58.7672 10.416L56.4572 11.4206C56.3388 11.4704 56.2377 11.5541 56.1666 11.6611C56.0955 11.7681 56.0576 11.8938 56.0576 12.0222C56.0576 12.1507 56.0955 12.2763 56.1666 12.3833C56.2377 12.4904 56.3388 12.574 56.4572 12.6238L58.7956 13.5376C58.9505 13.5973 59.0908 13.6894 59.2072 13.8078C59.3236 13.9262 59.4132 14.0681 59.4702 14.224C59.5272 14.3799 59.5502 14.5462 59.5376 14.7117C59.525 14.8772 59.4771 15.0381 59.3972 15.1836L59.3291 15.2971C59.2541 15.4461 59.1471 15.5767 59.0159 15.6797C58.8846 15.7826 58.7323 15.8554 58.5697 15.8928C58.4071 15.9302 58.2383 15.9313 58.0753 15.896C57.9122 15.8607 57.759 15.79 57.6264 15.6887L55.5094 14.1903C55.4056 14.1191 55.2835 14.0791 55.1577 14.0751C55.0318 14.071 54.9074 14.1032 54.7993 14.1677C54.6912 14.2322 54.6038 14.3264 54.5476 14.4391C54.4914 14.5517 54.4686 14.6781 54.4821 14.8033L54.8056 17.4595C54.8245 17.6216 54.8096 17.7858 54.7616 17.9417C54.7136 18.0976 54.6337 18.2419 54.5269 18.3652C54.4201 18.4885 54.2888 18.5883 54.1413 18.6581C53.9939 18.7279 53.8335 18.7662 53.6704 18.7706H53.5683C53.4048 18.7774 53.2418 18.7487 53.0904 18.6865C52.939 18.6244 52.8029 18.5303 52.6913 18.4106C52.5797 18.2909 52.4953 18.1485 52.4439 17.9932C52.3925 17.8379 52.3753 17.6732 52.3934 17.5106L52.6204 14.826C52.6294 14.701 52.6022 14.576 52.542 14.466C52.4818 14.3561 52.3912 14.2657 52.2811 14.2059C52.1709 14.146 52.0459 14.1191 51.9208 14.1285C51.7958 14.1378 51.6761 14.1829 51.5761 14.2585L49.4931 15.842C49.3618 15.9397 49.2114 16.0087 49.0517 16.0446C48.892 16.0805 48.7265 16.0824 48.566 16.0503C48.4055 16.0182 48.2536 15.9528 48.1199 15.8582C47.9863 15.7637 47.8741 15.6421 47.7904 15.5014L47.6996 15.3425C47.6111 15.2021 47.5544 15.0439 47.5336 14.8792C47.5128 14.7145 47.5284 14.5473 47.5793 14.3893C47.6301 14.2312 47.7151 14.0863 47.828 13.9646C47.941 13.843 48.0793 13.7476 48.2331 13.6852L50.5034 12.692C50.624 12.6442 50.7275 12.5613 50.8004 12.4541C50.8733 12.3468 50.9123 12.2201 50.9123 12.0903C50.9123 11.9606 50.8733 11.8339 50.8004 11.7266C50.7275 11.6193 50.624 11.5364 50.5034 11.4887L48.1991 10.5976C48.0452 10.5383 47.9057 10.447 47.7899 10.3297C47.674 10.2124 47.5844 10.0718 47.5269 9.91722C47.4695 9.76266 47.4456 9.59766 47.4568 9.43316C47.4679 9.26865 47.514 9.1084 47.5918 8.96303L47.6485 8.85519C47.7225 8.70529 47.8287 8.57359 47.9594 8.46948C48.0902 8.36537 48.2424 8.29142 48.405 8.25292C48.5677 8.21443 48.7368 8.21232 48.9004 8.24678C49.064 8.28123 49.2179 8.35138 49.3512 8.45222L51.5761 10.0017C51.6794 10.072 51.8007 10.1112 51.9255 10.1147C52.0504 10.1181 52.1737 10.0856 52.2807 10.0211C52.3877 9.95651 52.4739 9.86262 52.5291 9.75053C52.5843 9.63844 52.6061 9.51285 52.592 9.3887L52.2685 6.67005C52.2495 6.50858 52.2645 6.34491 52.3125 6.18959C52.3606 6.03427 52.4407 5.89075 52.5477 5.76828C52.6546 5.64582 52.7861 5.54714 52.9335 5.47859C53.0809 5.41005 53.2411 5.37316 53.4037 5.37031H53.5342C53.6993 5.36321 53.864 5.39225 54.0167 5.45538C54.1694 5.51852 54.3065 5.61424 54.4184 5.73585C54.5302 5.85746 54.6142 6.00204 54.6644 6.15947C54.7147 6.31691 54.7299 6.48341 54.7091 6.64734L54.448 9.3433C54.4385 9.46728 54.4648 9.59139 54.524 9.70077C54.5831 9.81015 54.6726 9.90017 54.7815 9.96005C54.8905 10.0199 55.0145 10.0471 55.1385 10.0384C55.2625 10.0297 55.3814 9.98541 55.481 9.91087L57.581 8.35005C57.7129 8.24398 57.8669 8.16876 58.0316 8.12989C58.1964 8.09101 58.3677 8.08948 58.5331 8.12539C58.6985 8.1613 58.8538 8.23375 58.9876 8.33744C59.1214 8.44113 59.2303 8.57343 59.3064 8.72465Z" fill="white"/>
<path d="M47.603 45.9784H47.5114C47.2497 46.2035 46.988 46.4102 46.7525 46.5986C46.47 46.815 46.1677 47.0043 45.8497 47.1639C45.5269 47.3316 45.1897 47.4699 44.8422 47.5773C44.4637 47.6907 44.0702 47.7463 43.6751 47.7422C42.3527 47.7422 41.3583 47.3531 40.6919 46.5751C40.022 45.79 39.6896 44.7433 39.6896 43.3878C39.6826 42.3863 39.8719 41.3933 40.247 40.4647C40.6003 39.5847 41.1051 38.7734 41.7386 38.0677C42.3628 37.3896 43.1129 36.8394 43.9473 36.4479C44.7789 36.0503 45.6894 35.8455 46.6112 35.8486C47.2183 35.8385 47.8234 35.9196 48.4064 36.0894C48.8641 36.2199 49.2911 36.4406 49.6624 36.7384L53.1533 36.0213L53.3129 36.2019L51.6382 43.202C51.5754 43.4349 51.5125 43.7253 51.4445 44.0838C51.3871 44.3472 51.353 44.6152 51.3425 44.8846C51.3425 45.3164 51.4393 45.6147 51.6382 45.7769C51.9422 45.9709 52.3024 46.0575 52.6613 46.0229C52.9257 46.0175 53.188 45.9761 53.4412 45.8999C53.656 45.8442 53.8675 45.776 54.0744 45.6958L53.8128 46.719C53.0617 47.0147 52.4625 47.2424 52.0097 47.3968C51.5029 47.5608 50.9723 47.6395 50.4396 47.6297C49.7844 47.6616 49.1341 47.5016 48.5686 47.1691C48.126 46.8876 47.787 46.4696 47.603 45.9784ZM48.9559 38.7612C48.9532 38.5622 48.9304 38.3641 48.8879 38.1698C48.8505 37.9614 48.7693 37.7634 48.6497 37.5888C48.5139 37.3946 48.3287 37.2401 48.1133 37.1413C47.8547 37.0311 47.5752 36.9784 47.2942 36.987C46.782 36.9921 46.2895 37.1848 45.9099 37.5286C45.4509 37.9348 45.0704 38.4218 44.7873 38.9653C44.447 39.6165 44.1945 40.3099 44.0362 41.0274C43.8526 41.8158 43.7604 42.6227 43.7615 43.4322C43.7594 43.7787 43.7883 44.1246 43.8478 44.4659C43.8921 44.7492 43.9869 45.0222 44.1278 45.2719C44.2575 45.502 44.4487 45.6913 44.68 45.8188C44.9494 45.956 45.2492 46.0226 45.5514 46.0124C45.9234 46.0121 46.2873 45.9029 46.5981 45.6984C46.9361 45.4847 47.2442 45.2268 47.514 44.9317L48.9559 38.7612Z" fill="#5C15BD"/>
<path d="M68.0947 38.6827C68.0887 39.7898 67.9059 40.8887 67.553 41.9381C67.2153 42.9895 66.7002 43.9755 66.03 44.8532C65.3493 45.7696 64.471 46.5209 63.4603 47.0514C62.5501 47.5126 61.5445 47.7537 60.5242 47.7553C59.1739 47.7553 58.1001 47.4404 57.3028 46.8106C56.5056 46.1808 56.1078 45.2772 56.1095 44.0996C56.1147 43.7014 56.1754 43.3059 56.2901 42.9246C56.4105 42.5085 56.5649 42.0192 56.7454 41.4566C56.8972 40.9785 57.0394 40.5058 57.172 40.0382C57.2995 39.6074 57.3664 39.1608 57.3709 38.7115C57.3878 38.5553 57.3734 38.3973 57.3284 38.2468C57.2835 38.0962 57.209 37.9562 57.1092 37.8348C56.926 37.6595 56.6015 37.5732 56.1305 37.5732C55.8776 37.575 55.6264 37.6138 55.3847 37.6883C55.123 37.7642 54.9136 37.8349 54.7305 37.9055L54.9922 36.8797C55.6045 36.618 56.1933 36.4165 56.7533 36.236C57.268 36.0677 57.8055 35.9794 58.3469 35.9743C59.2498 35.9743 59.9458 36.2019 60.4404 36.652C60.6764 36.8627 60.864 37.122 60.9905 37.4119C61.1169 37.7019 61.1793 38.0158 61.1731 38.332C61.1689 38.8614 61.1021 39.3884 60.9743 39.9022C60.8417 40.4569 60.7039 40.9541 60.5608 41.3938C60.43 41.7889 60.2991 42.2442 60.1552 42.7571C60.0347 43.1551 59.9644 43.5665 59.9458 43.9818C59.9173 44.5365 60.0819 45.084 60.4116 45.531C60.7222 45.9183 61.2229 46.1119 61.9137 46.1119C62.4173 46.1154 62.9161 46.0144 63.3787 45.8153C63.8413 45.6162 64.2575 45.3234 64.6012 44.9553C65.3601 44.1859 65.7395 43.1488 65.7395 41.8439C65.7389 41.7031 65.731 41.5625 65.716 41.4225C65.6975 41.2505 65.6669 41.08 65.6244 40.9123C65.5032 40.6927 65.3363 40.5018 65.135 40.3523C64.9206 40.1818 64.7154 40.0001 64.5201 39.808C64.2913 39.5748 64.0967 39.3105 63.9418 39.0229C63.7567 38.6625 63.6666 38.2608 63.6801 37.8558C63.6648 37.5142 63.7455 37.1752 63.913 36.8771C64.0588 36.6375 64.2499 36.4286 64.4756 36.2621C64.6758 36.1256 64.8967 36.0223 65.1298 35.956C65.3603 35.8836 65.6 35.8448 65.8416 35.8408C66.1589 35.8268 66.4749 35.8883 66.7638 36.0203C67.0526 36.1522 67.3061 36.3508 67.5033 36.5997C67.8906 37.11 68.0947 37.8035 68.0947 38.6827Z" fill="#5C15BD"/>
<path d="M77.2537 45.9784H77.1621C76.9004 46.2035 76.6387 46.4102 76.4058 46.5986C76.122 46.8144 75.8189 47.0036 75.5004 47.1639C75.1778 47.332 74.8406 47.4704 74.4929 47.5773C74.1147 47.6869 73.7221 47.7389 73.3284 47.7317C72.006 47.7317 71.0116 47.3427 70.3452 46.5646C69.6753 45.7795 69.343 44.7328 69.343 43.3773C69.3359 42.3759 69.5253 41.3828 69.9004 40.4543C70.2536 39.5742 70.7585 38.7629 71.392 38.0572C72.0161 37.3791 72.7662 36.8289 73.6006 36.4374C74.4323 36.0401 75.3428 35.8353 76.2645 35.8382C76.8716 35.8278 77.4768 35.909 78.0597 36.0789C78.5182 36.2095 78.9461 36.4301 79.3184 36.7279L82.8092 36.0109L82.9663 36.1914L81.2915 43.1915C81.2313 43.4244 81.1659 43.7149 81.0978 44.0734C81.0404 44.3368 81.0063 44.6047 80.9958 44.8741C80.9958 45.3059 81.0926 45.6042 81.2915 45.7665C81.5957 45.96 81.9557 46.0466 82.3147 46.0124C82.5755 46.0048 82.8343 45.9626 83.084 45.8868C83.2981 45.8312 83.5086 45.7631 83.7147 45.6827L83.453 46.7059C82.7046 47.0016 82.1027 47.2293 81.6526 47.3837C81.1456 47.5472 80.6151 47.6259 80.0825 47.6166C79.4273 47.6482 78.7771 47.4882 78.2115 47.156C77.7739 46.8766 77.4381 46.4637 77.2537 45.9784ZM78.6066 38.7612C78.6039 38.5622 78.5811 38.3641 78.5386 38.1698C78.5012 37.9614 78.42 37.7634 78.3004 37.5888C78.1655 37.3938 77.98 37.2391 77.764 37.1413C77.5054 37.0311 77.2259 36.9784 76.9449 36.9869C76.4327 36.9921 75.9402 37.1848 75.5606 37.5286C75.1016 37.9348 74.7211 38.4217 74.438 38.9653C74.0989 39.617 73.8464 40.3102 73.6869 41.0274C73.5077 41.8163 73.4199 42.6232 73.4252 43.4322C73.4237 43.7785 73.4517 44.1243 73.509 44.4659C73.5545 44.7488 73.6493 45.0216 73.789 45.2719C73.9194 45.5014 74.1104 45.6906 74.3411 45.8188C74.6114 45.9562 74.9121 46.0229 75.2152 46.0124C75.5819 46.009 75.9398 45.9 76.2462 45.6984C76.5842 45.4847 76.8922 45.2268 77.1621 44.9317L78.6066 38.7612Z" fill="#5C15BD"/>
<path d="M99.7374 45.6592L99.4967 46.685C98.743 46.9807 98.1438 47.2083 97.6963 47.3627C97.1894 47.5268 96.6588 47.6055 96.1262 47.5956C95.2208 47.5956 94.5194 47.3706 94.017 46.9179C93.7761 46.7108 93.5839 46.453 93.4541 46.1631C93.3243 45.8731 93.26 45.5581 93.266 45.2405C93.266 45.0573 93.266 44.8244 93.2921 44.5418C93.3256 44.182 93.3895 43.8257 93.4832 43.4767L94.3075 40.449C94.3912 40.1246 94.454 39.8288 94.4959 39.5672C94.5331 39.3554 94.5541 39.141 94.5587 38.926C94.5775 38.6186 94.4846 38.3147 94.297 38.0703C94.1809 37.9578 94.0415 37.8721 93.8887 37.8192C93.7359 37.7663 93.5734 37.7475 93.4125 37.7642C93.0291 37.796 92.6548 37.898 92.3082 38.0651C91.7156 38.3463 91.175 38.7259 90.7093 39.1877L88.82 47.402H85.0569L86.6741 40.4046C86.7213 40.1926 86.7788 39.9152 86.8521 39.5724C86.9159 39.2923 86.9518 39.0065 86.9594 38.7193C86.9594 38.2875 86.8704 37.9892 86.6977 37.827C86.525 37.6647 86.1953 37.581 85.7242 37.581C85.4714 37.5829 85.2201 37.6216 84.9784 37.6961C84.7167 37.772 84.5048 37.8427 84.3242 37.9133L84.5728 36.8875C85.1878 36.6258 85.7766 36.4243 86.3392 36.2438C86.8538 36.0751 87.3913 35.9868 87.9328 35.9821C88.8278 35.9821 89.503 36.16 89.94 36.5055C90.3989 36.8828 90.7117 37.4085 90.8245 37.9918H90.903C91.5885 37.3572 92.3646 36.828 93.2058 36.4217C93.996 36.0454 94.861 35.8522 95.7363 35.8565C96.0953 35.8357 96.4549 35.8865 96.7941 36.006C97.1333 36.1255 97.4453 36.3113 97.712 36.5526C97.9406 36.7684 98.1217 37.0295 98.2438 37.3192C98.3659 37.6089 98.4263 37.9208 98.4212 38.2352C98.4212 38.4105 98.4081 38.6539 98.3819 38.9705C98.3506 39.3115 98.2875 39.6488 98.1935 39.978L97.3299 43.1758C97.254 43.4375 97.186 43.7436 97.1232 44.0838C97.0723 44.3427 97.0425 44.6052 97.0342 44.8689C97.0342 45.3085 97.1311 45.6095 97.3221 45.7691C97.6271 45.9579 97.9856 46.0415 98.3427 46.0072C98.6086 46.0033 98.8728 45.9628 99.1277 45.8868C99.3364 45.8263 99.5402 45.7502 99.7374 45.6592Z" fill="#5C15BD"/>
<path d="M108.794 45.9784H108.703C108.441 46.2035 108.179 46.4102 107.939 46.5986C107.646 46.8169 107.334 47.0062 107.005 47.1639C106.669 47.3357 106.318 47.4776 105.958 47.5878C105.578 47.6959 105.185 47.7479 104.791 47.7422C103.467 47.7422 102.471 47.3531 101.805 46.5751C101.135 45.79 100.8 44.7433 100.8 43.3878C100.793 42.3874 100.979 41.395 101.347 40.4647C101.695 39.5843 102.196 38.7727 102.828 38.0677C103.44 37.3867 104.184 36.8359 105.013 36.4479C105.841 36.0512 106.748 35.8464 107.667 35.8486C108.259 35.8354 108.85 35.9103 109.42 36.0711C109.842 36.1951 110.239 36.3936 110.592 36.6572L111.435 32.9596C111.458 32.8523 111.479 32.7372 111.498 32.6116C111.514 32.5121 111.524 32.4115 111.526 32.3107C111.533 32.0833 111.465 31.8601 111.333 31.6748C111.198 31.4939 111.017 31.3521 110.809 31.2639C110.578 31.1595 110.333 31.0865 110.082 31.0467C109.807 31.0022 109.509 30.9604 109.182 30.9237L109.386 30.0811L115.763 29.7854L115.889 29.966L112.83 43.202C112.775 43.4218 112.712 43.7122 112.641 44.0708C112.58 44.3381 112.543 44.6105 112.531 44.8846C112.531 45.3164 112.628 45.6147 112.822 45.7769C113.125 45.9713 113.484 46.0579 113.842 46.0229C114.102 46.0154 114.36 45.9732 114.609 45.8973C114.823 45.8421 115.034 45.7739 115.24 45.6932L114.991 46.7164C114.24 47.0121 113.643 47.2397 113.196 47.3941C112.693 47.5576 112.167 47.6363 111.639 47.627C110.985 47.6591 110.335 47.499 109.771 47.1665C109.324 46.8874 108.982 46.4702 108.794 45.9784ZM110.126 38.6931C110.126 38.4955 110.101 38.2986 110.053 38.107C109.999 37.8971 109.9 37.7015 109.763 37.5339C109.624 37.3465 109.445 37.1927 109.239 37.0838C108.967 36.9618 108.671 36.9054 108.373 36.9189C107.869 36.9267 107.385 37.1184 107.012 37.458C106.55 37.8743 106.17 38.3741 105.892 38.9313C105.562 39.5806 105.317 40.2703 105.165 40.9829C104.98 41.7862 104.888 42.608 104.89 43.4322C104.888 43.7787 104.917 44.1246 104.976 44.4659C105.02 44.749 105.114 45.022 105.254 45.2719C105.383 45.502 105.575 45.6914 105.806 45.8188C106.075 45.9566 106.375 46.0232 106.677 46.0124C107.054 46.0065 107.423 45.8979 107.742 45.6984C108.095 45.4915 108.416 45.2331 108.692 44.9317L110.126 38.6931Z" fill="#5C15BD"/>
<path d="M121.722 47.7762C120.908 47.7921 120.098 47.6664 119.328 47.4046C118.692 47.1903 118.112 46.8392 117.627 46.3761C117.189 45.942 116.85 45.4179 116.635 44.8401C116.409 44.2207 116.297 43.5655 116.305 42.9062C116.303 42.01 116.473 41.1218 116.805 40.2894C117.145 39.4386 117.652 38.6645 118.296 38.0127C118.971 37.3338 119.777 36.7995 120.665 36.4426C121.67 36.0332 122.748 35.8311 123.834 35.8486C125.189 35.8486 126.222 36.0649 126.932 36.4976C127.271 36.6929 127.55 36.9779 127.738 37.3214C127.926 37.6648 128.016 38.0534 127.997 38.4445C128.001 38.8446 127.921 39.2411 127.763 39.6085C127.604 39.9758 127.37 40.3058 127.076 40.5772C126.367 41.2247 125.505 41.6812 124.572 41.904C123.871 42.1183 123.159 42.293 122.439 42.4273C121.85 42.5346 121.131 42.6314 120.283 42.723C120.303 43.1016 120.349 43.4783 120.419 43.8509C120.48 44.2222 120.594 44.5827 120.759 44.9212C120.941 45.2584 121.213 45.539 121.544 45.7324C121.933 45.948 122.374 46.053 122.818 46.0359C123.611 46.0585 124.397 45.8783 125.1 45.5126C125.806 45.0942 126.416 44.5337 126.893 43.8666L127.707 44.5915C127.027 45.5596 126.131 46.3562 125.09 46.9178C124.058 47.4854 122.899 47.7808 121.722 47.7762ZM124.294 38.7637C124.327 38.2442 124.204 37.7267 123.941 37.2774C123.837 37.1128 123.692 36.978 123.521 36.8863C123.349 36.7945 123.157 36.7489 122.962 36.754C122.378 36.754 121.826 37.2303 121.306 38.1828C120.738 39.3095 120.4 40.538 120.311 41.7967C120.759 41.7417 121.201 41.6737 121.643 41.5899C122.002 41.5316 122.354 41.4324 122.69 41.2942C123.187 41.1032 123.615 40.7666 123.917 40.3286C124.189 39.8531 124.319 39.3105 124.294 38.7637Z" fill="#5C15BD"/>
<path d="M44.8052 22.4974C42.7536 22.4974 41.016 24.057 39.5924 27.1763C38.9609 28.5999 38.2971 31.1382 37.601 34.7913C36.9049 38.4445 36.1591 41.0787 35.3636 42.6942C34.2157 44.9621 32.861 46.6046 31.2996 47.6217C33.0825 48.4536 34.9183 49.1669 36.795 49.7571C38.714 50.3555 40.1917 50.6564 41.228 50.6599C43.1993 50.6599 44.7598 50.263 45.9095 49.4692L46.1973 49.7963C45.5784 50.7913 44.8255 51.6965 43.9599 52.4864C42.9865 53.4023 41.9528 53.8603 40.859 53.8603C39.8943 53.8591 38.944 53.6267 38.0877 53.1825C36.8417 52.515 35.6359 51.7749 34.4765 50.9661C33.0732 50.0061 31.6129 49.1322 30.1037 48.3492C28.5499 49.1266 26.8324 49.5206 25.0951 49.498C23.9987 49.498 21.7534 49.0322 21.0416 48.6083C20.3298 48.1844 19.9766 47.6296 19.9766 46.944C19.9833 46.69 20.0546 46.4419 20.1837 46.223C20.3128 46.0042 20.4955 45.8218 20.7145 45.6931C21.1802 45.3549 21.7405 45.1718 22.316 45.1697C23.5198 45.1697 26.1523 45.7664 27.7224 46.2034C29.146 44.9822 30.5146 42.6148 31.8282 39.1013C32.1004 38.3633 32.5653 37.0157 33.223 35.0583C33.8807 33.1009 34.4695 31.5002 34.9894 30.2564C35.496 29.034 36.0853 27.8475 36.7531 26.7053C38.8082 23.3383 41.2035 21.6548 43.939 21.6548M23.9463 47.6819C25.0158 47.6584 26.0616 47.362 26.9845 46.821C25.8383 46.7189 25.2992 46.6221 24.4435 46.5802C23.3758 46.5279 22.9571 46.4258 22.5489 46.9832C22.2742 47.381 23.0121 47.7029 23.9437 47.7029L23.9463 47.6819Z" fill="#5C15BD"/>
<path d="M2.85066 33.1525C2.20311 33.1857 1.56437 32.9912 1.04524 32.6027C0.830804 32.4396 0.657669 32.2284 0.53978 31.9861C0.421891 31.7439 0.362542 31.4773 0.366513 31.2079C0.365197 30.9877 0.379941 30.7676 0.41063 30.5496C0.444566 30.3425 0.492077 30.0744 0.563344 29.7487L1.72736 24.7464H0L0.227373 23.7792H1.98188L2.66061 20.9286H5.71488L5.03616 23.7792H7.58817L7.36419 24.7464H4.84611L3.69906 29.7588C3.65495 29.9353 3.61083 30.1491 3.57011 30.4002C3.53983 30.5617 3.51943 30.7249 3.50902 30.8889C3.49313 31.0279 3.51212 31.1686 3.56426 31.2983C3.6164 31.4281 3.70006 31.5428 3.80766 31.6321C4.08274 31.7888 4.39794 31.8608 4.71376 31.8391C4.98518 31.8291 5.25477 31.7905 5.51805 31.7237C5.76124 31.6753 6.00146 31.613 6.2375 31.5371L6.03049 32.3821C5.49516 32.6214 4.93987 32.8133 4.371 32.9556C3.87412 33.0829 3.36356 33.149 2.85066 33.1525Z" fill="#5610AE"/>
<path d="M19.7778 31.5031L19.5707 32.3312C18.9508 32.5755 18.4554 32.7621 18.0843 32.8911C17.6693 33.0262 17.2345 33.0904 16.7981 33.0811C16.1675 33.1207 15.545 32.9221 15.0538 32.5246C14.8548 32.3528 14.6957 32.1395 14.5879 31.8997C14.48 31.66 14.4259 31.3995 14.4294 31.1366C14.4294 30.9601 14.4294 30.7667 14.4531 30.5529C14.4849 30.2573 14.5393 29.9646 14.616 29.6773L15.2948 27.1762C15.3626 26.9081 15.4135 26.6638 15.4475 26.45C15.4777 26.2739 15.4947 26.0958 15.4984 25.9172C15.5099 25.6622 15.4291 25.4116 15.271 25.2113C15.1746 25.1182 15.0591 25.0472 14.9325 25.0033C14.806 24.9593 14.6713 24.9435 14.538 24.9568C14.222 24.9839 13.9137 25.0691 13.6285 25.2079C13.1385 25.4403 12.691 25.7535 12.305 26.1344L10.7439 32.9216H7.64551L10.4147 20.9523C10.4382 20.8527 10.4563 20.7518 10.469 20.6503C10.4813 20.5728 10.4881 20.4945 10.4894 20.4161C10.4985 20.2307 10.4599 20.0461 10.3774 19.8799C10.2958 19.7443 10.1784 19.6339 10.038 19.5609C9.87566 19.4757 9.70014 19.4183 9.5188 19.3912C9.32536 19.3607 9.09798 19.3301 8.84007 19.3064L9.00975 18.6276L13.9611 18.3833L14.0663 18.5326L12.5561 25.0247H12.624C13.1675 24.5362 13.7791 24.1293 14.4396 23.8165C15.0776 23.5218 15.773 23.3723 16.4758 23.3787C16.7723 23.3609 17.0694 23.4025 17.3497 23.501C17.63 23.5995 17.8878 23.7529 18.1081 23.9523C18.2977 24.1304 18.4478 24.3462 18.5489 24.5858C18.6501 24.8254 18.6999 25.0836 18.6952 25.3437C18.6952 25.4862 18.6952 25.683 18.6646 25.9511C18.6372 26.2323 18.585 26.5106 18.5085 26.7826L17.7823 29.4194C17.7212 29.6366 17.6635 29.8877 17.6126 30.1694C17.5717 30.381 17.5467 30.5954 17.538 30.8108C17.5224 30.9458 17.5358 31.0825 17.5774 31.2118C17.6189 31.3412 17.6876 31.4602 17.7789 31.5608C18.0275 31.7241 18.3246 31.7971 18.6205 31.7678C18.8367 31.7646 19.0514 31.7315 19.2585 31.6694C19.4358 31.6282 19.6095 31.5726 19.7778 31.5031Z" fill="#5610AE"/>
<path d="M25.1846 33.2339C24.5124 33.2464 23.8431 33.1431 23.2061 32.9284C22.6814 32.7499 22.202 32.4593 21.8011 32.0766C21.4399 31.7177 21.1608 31.2847 20.9832 30.8074C20.7947 30.2959 20.7016 29.7541 20.7084 29.209C20.7072 28.4675 20.8477 27.7326 21.1224 27.0439C21.4027 26.3409 21.8217 25.7015 22.3543 25.1638C22.9121 24.6031 23.5784 24.162 24.3124 23.8674C25.141 23.527 26.0298 23.3573 26.9255 23.3686C28.0488 23.3686 28.9006 23.545 29.4877 23.9048C29.768 24.0661 29.9984 24.3016 30.1534 24.5854C30.3085 24.8692 30.3823 25.1903 30.3666 25.5134C30.3693 25.8436 30.3031 26.1709 30.1722 26.4741C30.0414 26.7774 29.8487 27.05 29.6065 27.2746C29.0203 27.8094 28.308 28.1865 27.5363 28.3708C26.9567 28.5504 26.3676 28.6976 25.7717 28.812C25.2875 28.9002 24.6936 28.9816 23.99 29.0563C24.0074 29.3696 24.046 29.6814 24.1054 29.9896C24.1551 30.296 24.25 30.5933 24.3871 30.8719C24.5322 31.1532 24.7532 31.3883 25.0251 31.5506C25.3462 31.7288 25.7101 31.8156 26.0771 31.8018C26.7321 31.8218 27.3815 31.6746 27.9639 31.3742C28.5469 31.0291 29.0518 30.5669 29.447 30.0167L30.1257 30.5902C29.564 31.393 28.8211 32.0522 27.9572 32.5144C27.1087 32.985 26.1548 33.2326 25.1846 33.2339ZM27.3124 25.7679C27.3382 25.3396 27.2367 24.9134 27.0205 24.5428C26.934 24.4071 26.8138 24.2961 26.6717 24.2206C26.5296 24.1451 26.3703 24.1076 26.2094 24.1118C25.7275 24.1118 25.2751 24.5054 24.852 25.2928C24.3829 26.2239 24.1037 27.2391 24.0307 28.2792C24.4006 28.235 24.7671 28.1807 25.1303 28.1095C25.427 28.0608 25.7173 27.9788 25.9956 27.8651C26.4069 27.7066 26.7614 27.4289 27.0137 27.0676C27.231 26.6763 27.3344 26.2319 27.3124 25.7848V25.7679Z" fill="#5610AE"/>
</svg>
